<?xml version='1.0' encoding='utf-8'?>
<svg xmlns="http://www.w3.org/2000/svg" version="1.1" viewBox="0 0 512 512"> <defs> <filter id="a" x="-.02046" y="-.02034" width="1.0409" height="1.0407" color-interpolation-filters="sRGB"> <feGaussianBlur stdDeviation="3.8750707"/> </filter> </defs> <path d="m281.44 20.575c2.9129 1.9419 15.778 14.564 20.147 27.915 4.3694 13.351 35.197 87.629 42.48 99.766 7.2822 12.137 31.572 71.938 38.438 82.923 6.8657 10.985 49.433 109.85 54.926 121.52 5.4926 11.672 46 103.67 46.687 109.85 0.68658 6.1792-4.1194 14.418-10.299 15.105-6.1792 0.68658-193.61-1.3732-214.21-0.68658-20.597 0.68658-150.36-2.0597-170.27-2.0597-19.911 0-54.239-0.68658-57.672-2.7463-3.4329-2.0597-2.0597-14.418 0.68658-20.597 2.7463-6.1792 19.224-34.329 22.657-39.821 3.4329-5.4926 43.941-72.09 49.433-85.135 5.4926-13.045 89.941-152.42 97.494-170.96 7.5523-18.538 38.448-84.449 43.941-91.314 5.4926-6.8657 28.559-42.22 35.563-43.767z" fill-opacity=".32059" fill-rule="evenodd" filter="url(#a)"/> <path d="m276.93 15.737c2.9129 1.9419 15.778 14.564 20.147 27.915 4.3694 13.351 35.197 87.629 42.48 99.766 7.2822 12.137 31.572 71.938 38.438 82.923 6.8657 10.985 49.433 109.85 54.926 121.52 5.4926 11.672 46 103.67 46.687 109.85 0.68658 6.1792-4.1194 14.418-10.299 15.105-6.1792 0.68658-193.61-1.3732-214.21-0.68658-20.597 0.68658-150.36-2.0597-170.27-2.0597-19.911 0-54.239-0.68658-57.672-2.7463-3.4329-2.0597-2.0597-14.418 0.68658-20.597 2.7463-6.1792 19.224-34.329 22.657-39.821 3.4329-5.4926 43.941-72.09 49.433-85.135 5.4926-13.045 89.941-152.42 97.494-170.96 7.5523-18.538 38.448-84.449 43.941-91.314 5.4926-6.8657 28.559-42.22 35.563-43.767z" fill="none" stroke="#fff" stroke-linecap="round" stroke-linejoin="round" stroke-width="6"/> <g fill-rule="evenodd"> <path d="m276.93 15.737c2.9129 1.9419 15.778 14.564 20.147 27.915 4.3694 13.351 35.197 87.629 42.48 99.766 7.2822 12.137 31.572 71.938 38.438 82.923 6.8657 10.985 49.433 109.85 54.926 121.52 5.4926 11.672 46 103.67 46.687 109.85 0.68658 6.1792-4.1194 14.418-10.299 15.105-6.1792 0.68658-193.61-1.3732-214.21-0.68658-20.597 0.68658-150.36-2.0597-170.27-2.0597-19.911 0-54.239-0.68658-57.672-2.7463-3.4329-2.0597-2.0597-14.418 0.68658-20.597 2.7463-6.1792 19.224-34.329 22.657-39.821 3.4329-5.4926 43.941-72.09 49.433-85.135 5.4926-13.045 89.941-152.42 97.494-170.96 7.5523-18.538 38.448-84.449 43.941-91.314 5.4926-6.8657 28.559-42.22 35.563-43.767z" fill="#14242f"/> <path d="m77.636 462.87 384.5 2.9129s9.7096-3.8838 8.7387-7.7677c-0.97098-3.8838-186.42-422.37-186.42-422.37s-4.8548-12.623-8.7387-12.623c-3.8838 0-235.94 428.19-235.94 428.19s-3.8838 4.8548-3.8838 8.7387c0 3.8838 31.071 2.9129 41.751 2.9129z" fill="#405c72"/> <path d="m220.12 288.09c-6.3112 2.4274-36.168 8.0105-49.276 15.293-13.108 7.2822-27.915 20.633-27.915 20.633s-9.4669 19.419-8.4959 20.633c0.97095 1.2137 61.899 40.78 113.12 42.965 51.218 2.1846 92.727-28.886 92.727-28.886l4.6121-35.683-44.907-29.857-74.036-6.3113z" fill="#798d9c"/> <path d="m286.9 41.182-23.163 1.5042c-0.18798 0.32829-0.46155 0.81921-0.65346 1.1549-0.70824 1.2484-1.4806 2.6148-2.1536 3.7976l28.995 0.38222c-0.11927-0.26916-1.2276-2.7742-2.0837-4.7099-0.0338-0.07624-0.91662-2.0736-0.94115-2.1289zm-11.952 14.824c-5.7922 0.21817-13.333 1.7048-20.776 3.5592-7e-3 0.01317-0.0172 0.02792-0.0247 0.0411-1.5742 2.7972-3.26 5.8101-4.973 8.8691 8.5216-1.2059 17.269-2.342 23.135-2.7331 6.9853-0.4657 17.066-0.03697 25.699 0.53427-0.57684-1.3019-3.8608-8.7191-4.2661-9.6336-5.4684-0.14246-10.928-0.32496-15.605-0.61238-0.98595-0.06058-2.0543-0.0674-3.1893-0.02466zm5.5771 21.371c-2.3828-0.04646-4.5118-0.04421-6.2717 0.01644-6.5378 0.22545-20.065 2.4434-32.707 4.7511-3.4e-4 6.1e-4 -4e-3 -6.11e-4 -4e-3 0-0.96961 1.7409-1.8837 3.3784-2.7988 5.0182-0.55302 0.9946-0.97909 1.75-1.5412 2.7618-0.033 0.05932-0.0572 0.10458-0.0904 0.16441 13.115-2.1559 26.846-4.3538 34.712-5.4168 10.256-1.386 24.335-0.39192 34.642 0.71101-0.63347-1.4298-2.4768-5.5956-3.0331-6.8512-7.8731-0.53705-16.332-1.0266-22.909-1.1549zm-2.8728 24.774c-10.176-0.23126-30.894 2.1896-49.837 4.7798-1.3841 2.5004-2.953 5.3518-4.377 7.928 17.326-2.0057 37.515-4.3688 49.845-5.91 14.246-1.7807 32.954 1.3349 45.402 4.0277-1.0582-2.389-2.5508-5.7598-3.5222-7.9527-11.314-1.2314-25.927-2.6095-37.511-2.8728zm-10.727 23.755c-15.476 0.26751-36.003 3.074-52.796 5.8155-1.8682 3.3886-3.5377 6.3959-5.4538 9.8761 22.828-3.1934 50.511-6.8605 61.694-7.406 12.73-0.62097 42.604 6.0808 62.581 11.01-1.6012-3.6158-2.6427-5.9689-4.151-9.3747-13.264-3.6679-36.245-9.2405-56.006-9.8884-1.8509-0.0607-3.8119-0.0684-5.8689-0.0329zm3.9907 25.173c-11.72 0.0512-24.942 0.53063-39.87 1.0768-10.47 0.38304-20.579 1.5137-29.83 2.9591-1.1226 2.0422-2.1371 3.8822-3.2715 5.947 22.776-1.7105 62.793-4.5373 80.192-4.5373 18.302 0 51.88 12.431 68.208 18.934-2.0055-4.53-2.7344-6.1759-4.5127-10.193-0.11643-0.26295-0.15515-0.35423-0.27126-0.61649-5.8174-2.36-13.986-5.4806-23.615-8.6102-12.137-3.9445-27.496-5.046-47.03-4.9606zm-37.445 13.213-40.252 5.3963c-1.5717 2.863-3.2401 5.919-4.8292 8.8157l43.627-8.8733 1.4549-5.3388zm39.332 9.2308c-4.7889-0.0455-9.775 0.11265-15.055 0.47675-19.479 1.3434-56.079 12.39-77.085 18.606-1.5296 2.7913-3.0432 5.557-4.5825 8.3678 24.414-7.3335 72.672-21.05 95.744-22.115 25.354-1.1702 71.184 19.677 88.424 28.009-2.1388-4.8329-2.3276-5.2626-4.4222-9.9953-6.492-3.4209-14.8-7.3836-24.774-11.22-20.512-7.8891-37.498-11.931-58.25-12.128zm-14.224 22.473c-10.749-0.0379-21.162 0.39666-29.961 1.3069-18.765 1.9412-43.976 10.708-59.585 16.534-3.4577 6.3187-6.7532 12.311-10.225 18.663 1.4802-0.0492 2.9912-0.13268 4.5086-0.25481l-3.1523 14.578-9.6295 0.8261c-1.536 2.8121-2.9811 5.4639-4.5127 8.2691l9.2884-1.3275v4.3688l-10.193 5.8278-4.414 0.88363c-3.2441 5.9444-6.4067 11.742-9.6048 17.607l3.7441 2.4947c-3.1143 2.307-6.0466 4.571-8.7911 6.7608-0.68281 1.2526-1.3917 2.5506-2.0714 3.7976 31.514-21.225 80.291-43.536 126.97-46.109 54.081-2.9808 109.98 53.004 122.91 66.819l-12.712 2.1207-1.6316 3.2591c-7.3767-8.5002-34.826-39.534-47.889-45.012-2.9129 5.3403 8.2537 12.138 26.702 26.702 11.577 9.1396 17.793 15.07 21.108 18.474l-1.6892 3.3742 10.197 3.8839 0.35756-0.27537c-0.33975 2.668-0.35756 4.6442-0.35756 4.6442l-9.2226 3.3989 0.96994 7.2786 11.557-2.5235-6.2183 9.3212-0.46031 0.60003c0.2709-0.60007 0.46031-1.085 0.46031-1.085s-5.8232 11.65-60.683 36.41c-54.859 24.76-107.78 5.8278-107.78 5.8278s25.732 22.817 92.243 4.8538c19.123-5.1645 33.528-11.25 44.379-17.303l-4.5702 3.2263s5.8237 3.3958 9.7076 2.4248c3.8838-0.97095 11.166-4.8553 16.02-7.2827 4.8548-2.4274 5.8278 4.8579 5.8278 4.8579l-8.2527 6.7937s14.564-3.3963 19.419-5.8237c4.8548-2.4274 10.193-10.197 10.193-10.197s9.7565 5.3537 18.885 10.283c-29.422 9.2384-66.428 20.363-86.365 24.187-35.44 6.7967-111.66 10.681-137.87 3.8838-15.197-3.9399-21.804-5.4893-25.038-6.1854l-1.1056-1.9645c-2.7463-0.68658-12.357-4.1231-11.327-1.3768 1.0299 2.7463 5.1497 7.554 5.1497 7.554l9.2678-0.68635-1.0316-1.8289c11.524 6.0705 46.774 21.656 96.418 16.14 48.147-5.3497 108.58-17.646 157.71-36.595 4.0829 2.1784 7.5482 3.9941 8.8075 4.5538 4.3693 1.9419 9.7117 0 9.7117 0l-10.542-7.6937c5.5689-2.2911 10.963-4.6715 16.152-7.143l6.021 1.048c-1.3168-2.9878-3.2216-7.2848-4.5908-10.39l-17.722-0.5836 1.9399-6.3087 13.127 0.87542c-0.87186-1.9767-1.9747-4.4641-2.8646-6.4813l-5.4045 0.26303-9.2267 4.8579-12.137-3.8838-4.3688-9.7117 14.08-2.4248 11.052-2.6961c-3.0301-6.8651-6.2017-14.054-9.3788-21.248l-7.0156-0.3329-3.814-6.1032 6.5388-3.2715c-0.88091-1.9942-1.6675-3.7789-2.5564-5.7908l-8.4212 1.0891-2.429 5.8237-9.2226 1.459-8.2527 2.4248-0.96171 0.16028c-8.7961-14.075-48.006-69.655-120.89-73.468-29.256-1.5308-56.588 6.786-79.9 18.26l0.27947-4.1798-12.137-6.7978 6.7978-6.7978 8.2527-9.7076-2.6221-3.5756c2.2547-0.50117 4.3248-1.0847 6.021-1.7631 4e-3 -2e-3 0.0122-2e-3 0.0164-4e-3 7.2964 2.0549 16.753 4.841 19.403 6.3128 4.3693 2.4274-3.4014 6.7993-8.7417 9.2267s-17.475-0.48907-17.475-0.48907 10.196 7.2858 14.565 8.2568c4.3693 0.97098 23.3-15.535 22.329-19.419-0.97095-3.8838-9.7091-2.4274-12.137-3.8838-0.83276-0.49968-3.2374-1.6912-5.947-3.0167 23.719-4.6321 70.553-10.003 81.199-9.6089 4.5067 0.16691 11.427 0.93511 19.041 1.9933-1.8929 1.1283-4.4181 2.618-4.4181 2.618l-0.34523 6.1772 11.327-1.7179 6.1977-5.125c8.1688 1.362 16.185 2.8971 22.387 4.3565l-10.497 10.147-14.565 7.7677-8.7376 6.7978 12.136-0.96994 12.137-8.2568 9.2267-9.2226 10.188-3.2016c4.5549 1.9698 10.45 5.1776 16.604 8.7705l-0.0945 1.7138-11.162-2.9139 0.48497 11.652-24.762 6.7978-0.48497 7.7677 10.682-4.8538 11.652-2.9139 4.8538-3.8838 2.429-9.7117 9.5473-1.8207c3.024 1.8046 6.0264 3.6417 8.9472 5.4662l-11.212 0.72744s-2.4279 4.3688 0.48497 4.3688c2.9129 0 14.565-0.48497 14.565-0.48497l1.9728-0.92882c2.3116 1.4768 4.3499 2.7925 6.2799 4.0524v0.76033l-20.393 2.9098-23.788 9.7117 8.7418 3.8839 12.622-5.8278 10.193-2.9098 10.197-3.8838 4.8127-2.2646c-5.6231-12.716-6.687-15.112-12.264-27.717-15.378-8.164-36.406-18.917-47.893-22.937-13.351-4.6728-38.633-7.0513-62.281-7.1348zm1.6604 33.434-5.836 4.1181 6.8676 4.4633 3.777-5.836-4.8086-2.7454zm23.003 0.34113-0.68637 3.777-4.4633 3.4318 8.2362 5.1497 4.8086-7.5499-7.8951-4.8086zm-124.05 31.132 10.669 2.844c-4.9214 2.5497-9.6373 5.2238-14.15 7.965l-2.3426-5.4703 5.8237-5.3388zm226.72 3.9784c-6.4783 0.39863-18.02 1.8184-21.363 3.3044-4.3693 1.9419-7.7677 7.2827-7.7677 7.2827l7.7677 11.162-2.9139 4.8579 16.02-0.48497 6.3128-7.2827 8.9924-2.8769c-1.2825-2.9014-2.2937-5.1987-3.5838-8.117l-7.8376 2.7413-3.3948 7.2786h-8.2568l-3.8838-7.7677 11.652-2.9098 10.295-2.5728c-0.73504-1.6626-1.3018-2.9491-2.0385-4.6154zm-235.95 4.2743 1.7796 4.9935c-3.996 2.5267-7.7884 5.085-11.401 7.6321l0.88362-9.2267 8.7376-3.3989zm11.167 11.167s-18.449 12.621-26.217 16.99c-5.3293 2.9977-12.808 8.1083-17.775 11.549-1.9131 3.5115-3.773 6.9207-5.6511 10.369 3.5182 0.65169 10.108 1.8536 11.434 1.8536 1.7164 0 5.4908-7.2088 5.4908-7.2088l0.26304-7.106c5.1859-2.2326 10.308-4.8352 13.522-7.5129 8.7387-7.2822 18.934-18.934 18.934-18.934zm236.19 10.406-12.387 1.7302-1.4549 8.2527-10.682 1.944 0.96992 6.7936 9.2267 0.48498 1.9399-6.7936 14.081-2.9139 2.2152-0.65348c-1.3699-3.1004-2.524-5.7118-3.9085-8.8445zm-5.6634 25.929 5.9018 5.9018-6.7978 4.3688-5.0675-5.0675 5.5525-5.1292 0.411-0.074zm-9.6541 6.2265-0.46854 6.9581-5.8237 1.4549s-1.7231-2.838-3.4523-4.7551l3.9373-3.0126 5.8073-0.64526zm20.41 3.5592 9.6829 2.1166-1.4302 9.535-9.7117 1.9399-3.8839-6.3087h-0.57537l5.9182-7.2827zm-295.26 0.75623c-1.3063 2.3993-2.3731 4.3594-3.6578 6.7197 1.6335 2.1564 3.2663 4.5447 4.7182 7.0855 5.8258 10.195 17.964 23.792 17.964 23.792l-19.025-37.597zm286.8 7.1142 2.6385 5.721-5.3388 7.2827-10.682 1.944-0.48497-7.7677h-4.8538l10.682-6.7978 8.039-0.38222zm-18.236 14.459 2.429 9.7117-7.2827 0.96992v-7.7677l4.8538-2.9139zm10.682 4.8579 8.7376 11.652 10.197 2.9098 12.622 7.7677 7.6156 1.3234c-4.578 1.4761-9.7448 3.1352-15.494 4.9606l-3.2879-2.4002-18.934-12.137-7.2827-4.8538 5.8278-9.2226zm-294.81 2.17c-0.52556 0.96628-1.0745 1.9821-1.5946 2.9386 12.566 25.064 41.522 45.381 41.522 45.381s-0.97097-1.459-11.652-13.111c-7.4578-8.1358-20.74-25.327-28.276-35.209zm269.28 2.5399 3.1975 1.5987 0.48497 8.2527-8.7376 0.97404-5.8443 0.41509c5.0886-4.2609 8.6136-8.1537 10.899-11.241zm11.45 9.8514 4.8538 2.4289-3.3989 8.2527-9.2226 0.96994-0.96994-7.7677 8.7376-3.8838zm-23.024 1.9481 3.6044 6.3087-14.08 4.8538-1.718-2.581c4.8638-2.9404 8.8349-5.8257 12.194-8.5814zm-228.46 2.4248-7.2827 2.4248 8.7418 5.3429 7.2827-2.429-8.7418-5.3388zm-39.821 2.6797c-0.97973 1.8023-2.2601 4.151-3.2139 5.9059l47.893 48.698-44.679-54.604zm56.33 6.058 1.4549 6.3087 9.2226 2.9139-10.678-9.2226zm25.728 7.2827-9.2226 0.48497 11.652 8.7377-2.4289-9.2226zm-92.074 5.084c-3.5411 6.5191-3.5938 6.6231-6.5512 12.071 15.793 14.789 46.195 40.618 46.195 40.618s-29.053-37.88-39.644-52.689zm240.04 0.87952-12.358 5.4949-8.2362 4.1181-25.062 2.7454s-15.446 0.34306-17.849 0.68635-4.1181 3.777-4.1181 3.777l9.2678-1.3727 2.0591-1.0316 14.076 3.0906s6.5218-2.7474 8.5815-3.0906c2.0597-0.34329 10.641-1.0275 10.641-1.0275s9.9574-2.7491 12.704-4.1222c2.7463-1.3731 10.295-9.2678 10.295-9.2678zm-135.83 1.3193c1.4564 3.3984 5.3408 6.3097 7.2827 5.3388 1.9419-0.97097-7.2827-5.3388-7.2827-5.3388zm270.34 4.1181c-6.4313 1.0554-33.854 5.5477-51.065 8.1294-4.7688-3.1083-8.5771-5.5328-9.5514-5.9388-5.8258-2.4274-13.591-1.4549-13.591-1.4549s9.1331 5.7734 13.974 8.8445c-18.94 3.5641-59.466 16.157-93.595 19.797-36.411 3.8838-62.14 3.8859-86.9 1.944s-37.869-2.9139-37.869-2.9139 11.653 16.506 95.641 7.7677c73.417-7.6387 107.14-16.387 131.97-20.739 7.1171 4.4967 11.683 7.3523 19.88 12.474-8.7013 1.4146-17.66 2.8555-28.046 4.451-8.3655-5.8192-14.823-10.07-15.544-9.7816-0.68513 0.27406 4.0203 4.5984 10.883 10.501-54.067 8.2201-123.11 17.236-152.16 14.746-50.976-4.3693-53.4-4.8538-53.4-4.8538s28.154 16.504 123.79 6.3087c33.462-3.567 63.412-7.1698 88.605-10.377 4.7956 4.0256 9.9018 8.235 15.215 12.597-13.887 2.191-26.205 3.9336-31.482 4.0934-10.154 0.30773-19.272 1.5471-24.918 2.4454-0.39871-1.2652-1.024-2.1173-2.0262-2.0262-3.7762 0.34329-12.358-0.34588-12.358 1.7138 0 1.4779 0.14618 4.871 0.2466 7.0854l14.722 0.11508c0.0499-1.9344-4e-3 -4.317-0.41098-6.132 8.4924-0.26145 33.496-1.1202 61.344-3.1112 4.406 3.6033 8.1714 6.6724 11.997 9.7939l11.36 0.0863c-3.2658-2.4114-6.5867-4.8721-14.356-10.562 12.657-1.0202 24.653-2.2626 34.24-3.7647 5.85 4.0871 10.632 8.443 14.364 12.326 1.7204-1.0465 3.4196-2.3617 4.0976-3.7729-3.8597-2.6556-6.0434-4.1622-13.612-9.3582 2.0113-0.3705 3.933-0.7515 5.61-1.1508 1.534-0.36524 2.8283-0.70741 4.0894-1.0439-0.91029-2.0991-1.8439-4.2489-3.0496-7.0115-2.5194 0.45379-7.0092 1.2657-15.934 2.8482-5.4404-3.7264-10.127-6.9449-15.926-10.895 13.045-1.8048 21.204-2.9911 26.669-3.7976-1.0198-2.3275-2.495-5.673-3.629-8.2568-0.0175 3e-3 -13.173 2.329-32.637 5.536-6.7211-4.5586-13.132-8.8872-18.729-12.621 0.45412-0.0624 0.92223-0.13888 1.3727-0.19727 17.073-2.2131 33.601-5.3317 43.577-7.3238-1.0407-2.3662-1.7647-4.0192-2.8646-6.5183zm-311.61 18.696 1.9399 9.7117 10.682-4.3688-12.622-5.3429zm23.788 6.7978-4.8538 5.3429c2.4274 3.8838 5.8258 6.3082 7.7677 2.9098s-2.9139-8.2527-2.9139-8.2527zm-104.26 0.4603c-1.0968 2.022-3.2117 5.9152-4.0113 7.3896 3.3339 2.4991 7.0123 5.1162 10.764 7.6526-3.9709-0.0328-8.6388-0.13691-14.783-0.2507-0.45036 0.83072-3.5862 6.6091-3.7441 6.9005 6.7811-1.2634 16.531-4.0315 20.163-5.5566 8.9801 6.0114 17.22 11.076 17.22 11.076s-15.086-15.964-25.609-27.212zm50.852 7.3074 4.8538 5.8278 12.626 0.48497-1.459-5.8278-16.02-0.48497zm320.16 0.92061c6.7974 4.2135 12.805 7.8889 17.759 10.85-9.6577 1.6979-19.844 3.4716-30.791 5.2566-5.7269-4.1709-11.177-8.1297-16.818-12.145 11.28-1.4517 20.979-2.7525 29.85-3.962zm-286.57 5.684c-4.2065-0.10015-11.257 3.1071-11.257 3.1071l9.7076 6.3087s6.7968-6.3102 3.8839-8.7376c-0.54616-0.45513-1.3637-0.65502-2.3344-0.67814zm13.986 4.077-6.7937 7.7677s12.62-0.48703 14.076-2.429c1.4564-1.9419-7.2827-5.3388-7.2827-5.3388zm-53.889 4.8538s-6.3082 0.48547-2.9098 3.8838 7.7677 5.3429 7.7677 5.3429l1.4549-4.8579-6.3128-4.3688zm72.679 3.2838c-3.9891-0.11283-9.142 0.84484-2.7701 2.544 7.2822 1.9419 12.141 3.3989 12.141 3.3989l-7.7677-5.8278c-0.48548-0.0607-1.033-0.099-1.6029-0.11508zm-132.2 1.0028c-1.1384 1.7631-2.618 4.4486-2.618 6.88 0 1.5535 5.0435 2.315 11.693 2.6879l1.9029-1.233-0.96994-6.7936-10.008-1.5412zm18.084 1.348c-0.50848-0.0555-0.67236 0.13198-0.30823 0.67814 1.3682 2.0523 3.6461 5.2662 5.4744 7.8663 1.3332 6.9e-4 2.6619-8e-4 3.9455-8e-3l1.7467-3.4893s-8.655-4.8066-10.858-5.047zm55.036 0.19317 3.5962 8.5362 9.5103 0.074v-5.7004l-13.106-2.9098zm74.763 1.9399-0.96994 6.3128 1.2987 0.82609 11.413 0.0863-11.742-7.2252zm-48.061 0.96994s-2.4295 2.916-1.944 4.8579c0.0714 0.28536 0.38355 0.60426 0.79323 0.93707l12.474 0.0945-11.323-5.8895zm173.76 2.2522-6.5224 4.1222 1.5782 0.70688 10.899 0.0822 1.2535-1.8207-7.2088-3.0906z" fill="#14242f"/> <g transform="matrix(2.1043 0 0 2.1043 -272.88 -252.35)"> <path d="m274.32 261.1s3.23 15.919-1.9611 22.264-11.42 16.265-24.109 15.112c-12.689-1.1536-23.879-4.9603-26.878-18.918-2.9993-13.958-2.3071-18.572-2.3071-18.572s28.493-6.1139 29.07-6.1139c0.57679 0 26.186 6.2292 26.186 6.2292z" fill="#284760"/> <path d="m281.93 267.91s-0.34607 9.4592-4.1528 15.919c-3.8068 6.46-7.3828 11.074-7.3828 11.074s7.2675-5.0757 9.2285-8.9978 5.4218-16.611 5.4218-16.611l5.9985 3.9221s-2.1918 0.69213-2.4225 3.23c-0.23071 2.5378 0.34607 4.9603-2.3071 7.6135s-4.845 6.3446-4.7296 7.4982c0.11535 1.1536 2.3071 3.8068 3.576 2.8839s10.728-8.3057 11.651-9.9207c0.92285-1.615 2.4225-4.4989 0.92285-5.9985-1.4996-1.4996-6.1139-8.5364-9.3439-10.036s-6.46-0.57678-6.46-0.57678z" fill="#14242f"/> <path d="m233.13 258.16s-5.7098 23.492 12.725 23.655c18.435 0.16314 16.151-23.329 16.151-23.329z" fill="#fff"/> <path d="m233.12 258.16s-0.28889 1.2335-0.52734 3.0879c1.904-1.8582 5.1874-1.7595 7.7054-1.946 4.4047-0.32627 20.801 1.5494 20.801 1.5494s-6.2004 2.0402-5.14 3.3453 1.9248 2.3079 1.6319 3.5891c-0.28402 1.2425-3.8349 1.2238-2.9377 2.4473s0.49046 2.6914 0.49046 2.6914-2.1339 3.6098-3.9147 4.4858c-3.2024 1.5753-7.208 1.45-10.687 0.6529-2.1119-0.48388-4.7708-2.3658-5.668-3.1815-0.45575-0.41432-1.4517-1.4286-1.4517-1.4286 0.0118 0.0341 0.0251 0.0676 0.0371 0.10156 0.18552 0.52438 0.39524 1.04 0.63672 1.5391 2e-3 5e-3 3e-3 0.0107 6e-3 0.0156 0.095 0.19573 0.20042 0.38535 0.30469 0.57617 0.0588 0.10749 0.11785 0.21453 0.17969 0.32031 0.0952 0.16308 0.19425 0.32369 0.29687 0.48243 0.085 0.13124 0.1735 0.26063 0.26367 0.38867 0.10553 0.15 0.21135 0.30002 0.32422 0.44531 0.0925 0.11898 0.19341 0.23204 0.29102 0.34766 0.19247 0.22824 0.39453 0.45001 0.60742 0.66406 0.14119 0.1418 0.28115 0.28487 0.43164 0.41992 0.1188 0.10673 0.24634 0.20631 0.37109 0.30859 0.14881 0.12189 0.29957 0.24218 0.45704 0.35743 0.13367 0.0979 0.27203 0.19224 0.41211 0.28515 0.17861 0.11836 0.36348 0.23198 0.55273 0.3418 0.12794 0.0743 0.2538 0.15047 0.38672 0.2207 0.26198 0.1383 0.53658 0.26502 0.81836 0.38672 0.11815 0.0511 0.23569 0.10237 0.35742 0.15039 0.31603 0.12458 0.64372 0.24065 0.98437 0.34375 0.14473 0.0438 0.29798 0.0794 0.44727 0.11914 0.26906 0.0717 0.54398 0.13923 0.82813 0.19727 0.17129 0.035 0.34653 0.0659 0.52343 0.0957 0.2951 0.0498 0.59917 0.0899 0.91016 0.125 0.15866 0.0179 0.31368 0.0408 0.47656 0.0547 0.48842 0.0417 0.99037 0.0695 1.5176 0.0742 1.1522 0.0102 2.2228-0.0713 3.2188-0.23438 0.99592-0.16309 1.9167-0.40734 2.7676-0.7207 0.85089-0.31337 1.6325-0.69611 2.3496-1.1367s1.3703-0.93953 1.9648-1.4844c0.59456-0.54485 1.13-1.1357 1.6133-1.7617 0.48324-0.62605 0.91373-1.2865 1.2969-1.9707 0.38314-0.68424 0.71938-1.3919 1.0137-2.1113 0.29405-0.71882 0.54713-1.4507 0.76367-2.1816 1.8e-4 -6.1e-4 -1.8e-4 -1e-3 0-2e-3 0.64997-2.1947 0.97539-4.3916 1.1289-6.2812 0.10227-1.2589 0.12899-2.3817 0.12304-3.2754v-2e-3c-9e-3 -1.341-0.0898-2.166-0.0898-2.166z" fill="#798d9c"/> <path d="m251.27 253.06c-1.1398-4e-3 -2.302 0.0224-3.4844 0.0801-37.837 1.8457-52.603 22.38-58.602 29.07 0 0 25.841 20.071 58.141 22.84 32.3 2.7686 54.217-23.303 54.217-23.303s-14.938-28.579-50.271-28.688zm-7.1758 5.3867c38.298-0.69214 52.604 22.84 52.604 22.84s-13.614 22.149-44.76 21.457c-31.146-0.69214-60.676-21.227-60.676-21.227s14.534-22.378 52.832-23.07z" fill="#14242f"/> <path d="m217.1 261.68s-2.3071 3.6914-0.23072 14.189c2.0764 10.497 3.6914 15.919 2.1918 15.919s-5.5371-12.92-5.5371-18.457 0.69214-10.151 0.69214-10.151l-5.4218 2.7686s0.57679 10.613 1.8457 16.265c1.2689 5.6525-1.0382 8.7671-1.4996 5.9985-0.46142-2.7686-2.7686-20.533-2.7686-20.533l-3.4607 2.6532s2.4225 5.7678 1.8457 7.8442c-0.57678 2.0764-3.23 1.7304-4.4989 2.6532s-4.845 4.9603-5.3064 4.4989c-0.46142-0.46143-4.9603-3.4607-4.9603-3.4607s8.8824-10.036 11.997-11.997c3.1146-1.9611 10.613-7.0367 10.613-7.0367z" fill="#14242f"/> <path d="m224.48 259.6c0.11535 1.615-0.8075 15.804 4.0375 22.148s12.228 10.497 17.303 10.728c5.0757 0.23071 16.15-5.5371 18.342-7.9596 2.1918-2.4225-0.11536-0.57678-3.3453 1.0382s-12.458 6.9214-17.419 4.7296c-4.9603-2.1918-13.612-7.1521-14.65-12.458-1.0382-5.3064 0.57678-20.764-4.2682-18.226z" fill="#14242f"/> <path d="m263.7 258.1s0.46143 8.1903-0.23071 13.151c-0.69214 4.9603-4.4989 11.074-9.4592 12.343-4.9603 1.2689-11.074 1.615-15.342-0.46142-4.2682-2.0764-5.7678-3.6914-5.7678-3.6914s2.5378 5.4218 5.8832 5.9985c3.3453 0.57678 15.227 2.0764 19.38-1.8457 4.1528-3.9221 6.3446-7.9596 6.9214-12.228s0.57678-12.805 0.57678-12.805z" fill="#14242f"/> <path d="m273.97 262.71s0.57679 11.651 0 13.958c-0.57678 2.3071-4.1528 9.1132-7.4982 12.228-3.3453 3.1146-7.4982 7.1521-11.19 7.4982-3.6914 0.34607-14.65 0.92285-19.495-1.3843s-10.844-7.3828-12.458-14.189-3.1146-19.726-3.1146-19.726l-2.1918 0.46143s0.23071 13.843 2.3071 19.957c2.0764 6.1139 6.46 13.958 15.688 16.035s22.61 3.9221 29.185-3.23c6.5753-7.1521 11.19-12.574 11.074-16.727-0.11535-4.1528-0.46142-14.881-0.46142-14.881z" fill="#14242f"/> </g> <path d="m161.12 292.91 27.242-20.23 6.2849 0.57581-13.983 8.9567z" fill="#14242f"/> <path d="m282.73 266.48 8.266-2.4274 2.2177 2.9129-4.637 1.9419z" fill="#14242f"/> </g> </svg>