<?xml version='1.0' encoding='utf-8'?>
<svg xmlns="http://www.w3.org/2000/svg" width="420mm" height="297mm" clip-rule="evenodd" fill-rule="evenodd" image-rendering="optimizeQuality" shape-rendering="geometricPrecision" text-rendering="geometricPrecision" viewBox="0 0 420 297"> <defs> <style type="text/css">.fil6 {fill:#332C2B} .fil11 {fill:#63739B} .fil25 {fill:#6F6E6E} .fil10 {fill:#7789A4} .fil2 {fill:#858097} .fil3 {fill:#945434} .fil1 {fill:#999AAC} .fil4 {fill:#A9683A} .fil0 {fill:#C1BFCD} .fil5 {fill:#C7CBD7} .fil22 {fill:#C8C8C9} .fil12 {fill:#C9CAD9} .fil23 {fill:#D3D3D4} .fil15 {fill:#D5D3DD} .fil7 {fill:#D8D9E3} .fil13 {fill:#D9D7E2} .fil14 {fill:#DBD9E2} .fil16 {fill:#E0DEE6} .fil20 {fill:#E2DFEF} .fil21 {fill:#E4E1ED} .fil19 {fill:#E6E4EF} .fil26 {fill:#E9EAEA} .fil9 {fill:#EBE9F1} .fil18 {fill:#ECEBF1} .fil8 {fill:#F2F1F8} .fil24 {fill:#F5F6F6} .fil17 {fill:#FEFEFE}</style> </defs> <path class="fil0" d="m100.04 103.74c2.5584-1.7057 8.5282-9.04 21.662 1.5351 13.134 10.575 24.05 21.832 20.468 35.136-3.4113 13.134-16.886 18.933-1.7057 17.568 15.18-1.3646 28.826 6.9931 30.872 14.498 2.0468 7.6754 1.3646 16.033 17.227 19.103 16.033 3.0702 47.246-5.1169 53.046-8.8693 5.7992-3.923-31.213 8.5282-42.3 6.9931-11.087-1.7056-27.29-7.846-24.22-25.926 3.0701-18.25 12.622-29.337 32.237-30.19 19.444-0.8528 40.765 2.2173 44.517 9.0399 3.923 6.6521-2.0468 30.019 0.6823 27.461 2.729-2.7291 5.7992-16.374 8.1871-22.515 2.3879-5.9697 8.6988-9.381 18.933-11.94 10.234-2.3879 10.746-0.1706 10.746-0.1706s-1.3645-21.321 6.8226-26.438 8.5283-5.117 8.5283-5.117l0.1705-5.7992s-37.695-1.0233-24.391-3.2407c13.475-2.3879 94.663-0.5117 94.663-0.5117l-1.5351-5.2875-92.958-3.0702-1.5351-9.381 103.53-0.3411 2.0468-12.792-104.73-1.194-0.3412-2.2173 106.6 1.194-1.3645-4.4347-107.46-2.5585 1.5351-5.2875 103.53 1.5351v-3.5819s-85.624-2.0468-88.182-6.4814c-2.5585-4.6053-2.2173-5.4581-2.2173-5.4581l-97.734 4.7758s-9.8928 20.638-30.702 36.16-47.246 21.662-49.805 21.491c-2.729 0-14.839 6.3109-14.839 6.3109zm101.66-56.286 1.535 69.42 74.537 1.0234-0.3411-6.3109-71.467 1.0233-0.3411-61.915 70.614-4.0935-74.537 0.8528z"/> <path class="fil1" d="m107.89 99.817c3.4113-0.5117 7.8459 0.5117 13.816 5.4581 2.5585 1.8762 4.9464 3.9229 7.1637 5.9697l0.5117 0.3412c-4.6052-10.234-11.598-16.204 16.545-19.615 28.143-3.2407 60.55-22.514 53.557-26.267-6.9931-3.7524-10.404-8.3576-3.7524-9.0399s4.0936-2.8996-4.7758-2.729c-0.8528 0-2.3879 0-4.6053 0.1705-4.9463 6.8226-12.281 14.839-21.662 21.832-20.809 15.521-47.246 21.662-49.805 21.491-1.1939 0-3.923 1.1939-6.8226 2.3879h-0.1705z"/> <path class="fil2" d="m111.3 101.52c2.5584 0.6823 5.458 2.2174 9.0399 4.9464 13.134 10.575 24.05 22.003 20.468 35.307-2.5585 9.8928-11.087 15.862-8.0166 17.398 6.4815-4.0935 11.428-10.575 11.94-20.127 1.5351-27.632-24.22-38.036-31.043-40.253h-0.1706c-0.5117 0-1.0234 0.1706-1.7057 0.3411l-0.5116 2.3879z"/> <path class="fil3" d="m102.26 112.27c1.0234-6.1403 9.5516-21.321 24.732-3.0702 15.18 18.25 12.11 37.183 1.194 54.069-10.916 17.056-17.739 21.15-17.568 39.742 0.1706 18.592 5.4581 51.34-13.645 52.704-19.274 1.3645-40.253 2.2173-40.253 2.2173s-16.715-21.491-9.7222-52.193c6.8226-30.531 23.197-46.905 28.314-54.24 5.1169-6.9931 15.862-17.739 18.421-22.173 4.0935-6.8226 8.5282-17.056 8.5282-17.056z"/> <path class="fil4" d="m65.591 247.53c-29.849-4.0936-14.839-51.852-5.6286-70.443 9.2105-18.592 40.594-45.711 45.711-51.681 4.9464-6.1403 13.475-0.3411 7.5049 22.685-6.1404 23.367-18.08 30.531-18.592 50.146-0.5117 19.786 6.1403 52.022-6.4815 43.153-12.792-9.0399-20.297-7.846-20.979-1.1939-0.8528 6.8226-1.5351 7.3343-1.5351 7.3343z"/> <path class="fil5" d="m73.778 215.8c4.4347 0 8.1871-3.2407 8.3577-7.5048 0.1705-4.2642-3.4113-7.846-8.0166-8.0166-4.4346 0-8.1871 3.4113-8.3576 7.6754 0 4.0936 3.5818 7.6754 8.0165 7.846z"/> <path class="fil6" d="m110.62 109.71c0.5117 2.0468 0.1706 4.6053 0.1706 6.6521 1.1939-1.7057 2.0467-3.7525 3.4113-4.9464 0.3411 1.7056-1.0234 3.2407-0.8529 4.9464 0.6823-1.194 1.5351-1.8762 2.3879-2.5585-0.8528 3.0702-3.0701 5.6286-3.0701 9.2105-0.6823-0.3411-0.8529-1.0234-1.5351-0.5117l1.8762-4.4347c-1.5351 1.8762-2.729 4.0936-4.2641 5.9698h-0.5117c2.2173-3.2407 4.6052-6.652 4.7758-10.746-2.5585 3.5819-3.923 7.6754-6.3109 11.257l-0.8528-0.3412c-0.6823 1.5351-1.3645 2.7291-2.3879 3.923-0.1706-0.3411 0.3411-1.0234-0.3412-0.8528-1.3645 2.2174-2.729 4.4347-4.7758 6.4815l0.3412 0.5117c-1.3646 2.0467-3.4113 4.0935-4.2642 6.1403l3.2408-3.2407-8.6988 10.234-0.1706 1.1939c-5.2875 6.652-10.063 12.963-15.521 19.615l-0.1706-1.0234c-2.0467 3.0701-4.0935 6.3109-6.1403 9.5516 0-0.6823 1.194-1.3645 0.5117-1.8762-2.5585 3.7524-5.4581 8.8693-5.9698 12.963-2.729 6.9932-4.4346 14.669-6.1403 22.685-1.5351 10.063-2.8996 20.468-0.6822 30.702 0.6822-0.3412 0-1.194 0.5116-1.7057l-0.1705 2.3879c-0.6823 0.3411-0.8528-0.6822-1.194-1.0234 0 2.3879 0.1706 5.2875 1.0234 7.6754-1.5351-3.4113-1.8762-7.3342-2.0468-11.428-0.8528-15.862 1.194-31.896 5.6287-46.905-4.4347 9.7222-5.7992 20.98-6.9932 31.043 0.6823-17.227 6.1404-34.113 15.351-48.611 7.1637-13.304 16.204-25.926 28.143-35.989 0.8529-0.8529 2.2174-2.8996 3.5819-3.4113 4.9464-6.3109 8.6988-13.475 10.234-21.321 1.0234-0.5117 0.8528-3.4113 1.8762-2.2174zm-4.6053 14.328c1.8763-3.7524 2.3879-8.1871 3.923-12.281 0.6823 4.6053-1.3645 8.6988-3.923 12.281zm-29.508 34.454c-1.535 3.2407-4.0935 5.9697-5.9697 8.8693 5.1169-10.234 12.792-18.933 21.491-27.461-5.2875 5.9698-10.746 12.451-15.521 18.592zm5.6287-4.9464c0 0.8528-1.0234 1.5351-1.3645 2.2173 0-0.8528 0.8528-1.5351 1.3645-2.2173zm-12.11 17.227c0.6822-3.4113 3.7524-6.3109 5.6286-9.5516l4.2641-4.9464c-2.5584 5.2875-6.8226 9.3811-9.8927 14.498zm-11.257 24.05c-1.1939 4.9463-2.729 10.234-3.7524 14.839 0-4.7758 1.5351-9.8928 2.8996-14.669l-0.3411-0.8528c0.3411 0.1706 0.3411-0.3411 0.5117 0 0.8528-0.5117-0.1706-1.3645 0.3411-2.0468l0.3411 0.3411 0.8528-0.6822c0.1706 0.6822-0.5117 2.0468-0.8528 3.0702z"/> <path class="fil7" d="m220.63 141.44-3.923-5.117c-4.2642 0.3412-31.896 4.6053-24.902 8.3577 6.9932 3.5819 14.157 4.6053 14.157 4.6053s-8.1871 8.6988-6.1403 15.521c2.0467 6.652 6.3108 13.816 11.087 16.715 4.7758 2.729-10.916-8.3577-5.7992-18.421 5.1169-10.063 18.08-19.444 15.521-21.662z"/> <path class="fil1" d="m220.63 141.44-3.923-5.117c-4.2642 0.3412-31.896 4.6053-24.902 8.3577 2.729 1.194 5.2875 2.2174 7.5049 3.0702 6.4814-5.9698 16.033-7.1637 21.662-5.6287 0-0.1705-0.1706-0.5116-0.3411-0.6822z"/> <path class="fil2" d="m219.44 139.73-2.729-3.4113c-4.2642 0.3412-31.896 4.6053-24.902 8.3577 1.0234 0.5117 2.0468 0.8528 3.0702 1.3645 3.2407-5.6286 9.381-8.6988 23.197-6.4814 0.3411 0 0.8528 0.1705 1.3645 0.1705z"/> <path class="fil8" d="m205.11 150.13c-0.5117 0.8528-1.5351 2.0468-2.5585 3.7524 4.4347-1.5351 7.6754-1.5351 10.063-1.0234 1.3645-1.5351 2.5585-3.0701 3.7524-4.4347-5.458-0.8528-8.3576 0.1706-11.257 1.7057z"/> <path class="fil9" d="m101.07 108.34c1.3645-8.5282-1.5351-9.7222 6.9931-12.792 8.5283-3.2408 21.662-3.2408 21.832-3.0702l2.2173 1.8762c-37.012 6.4815-32.237 21.321-31.043 13.986z"/> <path class="fil1" d="m202.72 98.793c-19.956 1.7056-63.28 16.204-20.98 17.227 8.3577 0.1706 15.521 0.1706 21.321-0.1705l-0.3411-17.056z"/> <path class="fil1" d="m241.27 136.49c4.6052 1.3645 8.0165 3.0702 9.8927 5.117 0.3412 0 0.6823 0 1.0234 0.1705 3.923 0.5117 8.0166 0.6823 12.11 0.6823 3.4113-3.0702 8.5283-5.117 15.351-6.8226 10.234-2.3879 10.746-0.1706 10.746-0.1706s-0.1705-1.3645-0.1705-3.4113c-16.033-1.8762-38.036-6.4814-15.351-7.1637 6.1404-0.1706 11.598-0.6823 16.033-1.5351 0.6823-5.7992 2.3879-11.94 6.3109-14.327 8.1871-5.117 8.5283-5.117 8.5283-5.117v-0.3411l-26.438 1.3645s-38.377 4.0936-61.574 7.5049l59.698-0.8528 0.3411 6.3109-73.513-1.0234 0.1706 0.1705c22.514 1.8762 68.738 5.6287 57.992 8.3577-7.1637 2.0468-20.638 6.9932-21.15 11.087zm-38.206-21.321c-2.5585 0.6823-2.7291 1.3645 0.1705 1.7057l-0.1705-1.7057z"/> <polygon class="fil10" points="348.39 86.172 376.36 85.319 376.53 81.908 348.39 82.76"/> <polygon class="fil11" points="333.55 92.482 346 92.824 346.17 82.931 333.72 82.76"/> <path class="fil1" d="m337.81 41.484 43.665 0.5117s-1.5351-12.451-7.846-9.8927c-6.3109 2.3879-35.307 9.381-35.819 9.381z"/> <path class="fil7" d="m150.02 35.002c-3.0701-0.1706-6.3108 0.3411-9.5516 0.5117 2.2174 0.5117 15.692-0.6823 19.444 9.2105 3.7524 9.8927 6.3109 19.274 4.4347 21.832-1.8762 2.729-2.5585 9.7222-2.5585 9.7222l24.05-33.09c-2.0467-1.8762-4.7758-2.8996-8.5282-3.2407-1.5351 2.0467-6.1403 7.1637-11.428 4.7758s-4.6053-6.652-4.6053-6.652-4.4347-2.7291-11.257-3.0702z"/> <path class="fil12" d="m147.63 35.002-3.9229 0.5117c2.2173 0.3411 12.451-0.6823 16.204 9.2105 3.7524 9.8927 6.3109 19.274 4.4347 21.832-1.8762 2.729-2.5585 9.7222-2.5585 9.7222l24.05-33.09-1.0233-0.5117c-1.0234 1.3645-2.0468 2.5585-3.0702 3.923-6.9932 9.2105-15.862 8.0165-20.468-1.3645-3.4113-6.9932-7.6754-9.5517-13.645-10.234z"/> <path class="fil13" d="m295.17 40.29c-2.3879-4.4347-2.0467-5.2875-2.0467-5.2875l-97.734 4.7758s-0.3412 0.8528-1.194 2.2173c14.498 0 75.048 0.3412 100.97-1.7056z"/> <path class="fil14" d="m305.75 102.72 0.1705-4.6053s-6.8226-0.1705-13.645-0.5117l-15.01 0.6823 0.3412 5.7992 28.143-1.3645z"/> <path class="fil15" d="m138.08 158.15c0.6823 0 1.5351 0 2.3879-0.1705 12.281-1.194 23.538 4.0935 28.484 10.234-2.8996-5.2876-6.4814-10.575-11.257-12.451-7.1638-3.0701-14.328-1.0234-19.615 2.3879zm33.431 15.351c1.5351 6.3109 1.8762 12.963 11.257 16.545-3.7524-3.4113-6.4815-7.1637-7.846-9.381-0.8528-1.5351-2.0468-4.2641-3.4113-7.1637z"/> <path class="fil15" d="m190.1 187.32c-9.04-3.2407-17.398-10.063-15.01-23.538 2.3879-14.498 9.0399-24.391 21.491-28.484v-0.3412c-8.1871 1.194-34.284 14.157-22.003 38.889 5.1169 10.234 10.746 13.304 15.521 13.475z"/> <path class="fil16" d="m273.51 51.376s-56.116 1.0234-39.23 4.0936c16.886 3.0701 40.936 0.8528 40.936 0.8528l-0.6823 8.5282-68.396 0.5117 0.3412 21.832 67.544-0.5117 1.0234 10.234-47.588 0.1706s19.956 5.7992 34.966 6.652c15.18 0.6822 13.475-0.1706 13.475-0.1706l1.3645-4.4347-0.1705-48.099-3.5819 0.3411z"/> <path class="fil17" d="m274.87 51.547s-53.898 2.2173-35.648 3.0701c18.25 0.8529 35.478 0 35.478 0l0.1705-3.0701z"/> <path class="fil17" d="m275.04 101.35c0.3411-0.8529-56.457-6.3109-49.464-2.0468 7.1637 4.0935 37.183 8.8694 44.006 7.1637 6.6521-1.5351 4.9464-4.2641 5.4581-5.1169z"/> <path class="fil18" d="m253.38 128.81c2.5585 0.1706 4.6052-1.194 4.7758-2.8996 0-1.7057-2.0468-3.0702-4.6053-3.2407-2.5584 0-4.6052 1.3645-4.6052 3.0701-0.1706 1.7057 1.8762 3.0702 4.4347 3.0702z"/> <path class="fil19" d="m173.9 147.23c2.5585 0.1706 4.6053-1.7057 4.7758-4.0936 0-2.3879-2.0468-4.2641-4.6052-4.4347-2.5585 0-4.6053 1.8763-4.6053 4.2642-0.1705 2.2173 1.8762 4.2641 4.4347 4.2641z"/> <path class="fil6" d="m377.9 32.785 0.1706 2.0468c-1.8762-0.5117-1.7056-4.4347-4.7758-2.8996l-3.2407 1.0234c0.6822 0.6823 2.0467 0.1706 2.2173 1.0234-1.1939 0.1706-2.5585 0.1706-3.4113 0.6823 1.8762 0.6822 4.2641-0.6823 5.7992 0.6822-2.5585-0.6822-3.2407 1.0234-5.2875 1.8762v0.5117c-4.7758 0.5117-9.5516 0.6823-14.327 1.3645 5.458 0.8529 11.257 0.1706 16.545 0.1706 0.3412 0.3411 0.1706 0.6823-0.1705 0.8528 2.2173-0.1705 4.6052 0.6823 6.8226 0.5117 0.3411-1.5351-0.8528-2.8996-0.5117-4.4347 1.0234-0.1705 0.3411 1.194 1.3645 0.8529 0.5117 1.7056 1.8762 3.4113 1.194 5.1169l-0.6823-0.6823c-11.598-0.8528-23.708 0.3412-35.307-0.1705-7.6754 0.3411-14.498 0.8528-22.173 0.8528l-3.2408 1.3645c10.404-0.3411 19.786-0.1705 30.361 0.1706l0.5117-0.5117c9.5516-0.3411 18.762-0.1706 28.825 0.1706 0.5117 0.1705 1.194 0.1705 1.194 0.6822-3.7525 0-7.846-0.5117-11.428 0.1706 3.4113 1.3645 8.1871 0.1705 11.769 1.1939l0.8528-1.7056c1.194 0.5117 1.7057 2.8996 3.5819 1.8762 0 0.6823-0.1706 1.5351 0.6822 1.7056 0.3412 9.8928 0.3412 18.592-0.8528 27.12-1.0234-0.1705-0.1706 1.0234-0.6823 1.3646-0.5116-7.5049 0.1706-16.204 0.5117-24.561-0.3411 0-1.8762-0.1705-1.3645 0.8529-2.5584 1.0233-5.9697-0.3412-8.3577 0.3411 1.8763 0.6822 4.2642 1.0234 5.6287 1.7056-2.729 0.3412-5.9698-0.3411-8.8694 0 0 0.3412 0.1706 0.5117 0.5117 0.5117 3.2407 0.1706 5.7992 0.1706 8.6988 0.8529v0.6822c-2.0468 0.3411-3.5818 0.8528-5.4581 1.3645v-0.3411c-18.762-0.5117-37.865 1.5351-56.457 1.8762 4.0936-1.0234 8.6988-0.3411 12.281-1.1939v0.1705c8.1871 0.1706 17.398-0.5117 26.267-1.1939l-1.1939-0.3412c-15.01 0.5117-29.337-0.5117-43.835 0.8529 2.729-1.194 6.3108-0.3412 9.5516-1.194l-7.846-0.5117c0.1706-0.6822 0.8528 0 1.194-0.5117l-0.1706-0.5117 9.0399-0.1705c-1.5351 0-3.4113 0.1705-4.7758 0.3411 3.7524 0.5117 7.6754 0.1706 11.257 0.1706-2.0468 0-3.5819 0.1705-5.6287 0.3411 4.4347 0.6822 9.2105 0.3411 13.645 0-2.729-1.0234-5.2875 0.6822-7.6754-0.3411 1.7057-0.3412 3.5819-0.6823 5.4581-0.6823-3.5819-0.3411-7.846-0.1706-11.769 0.1706l3.0702-0.5117c-3.923-0.5117-7.846 0-11.769-0.1706-0.1706-0.6823 0.5117-0.1706 0.6823-0.6823-0.8529-1.1939-2.7291-1.0233-3.4113-1.8762 20.297-0.3411 43.665-2.0467 64.815-1.0234 1.8762 0.6823 4.2641 0.3412 6.3109 0.5117 0.3411-1.0233 0.3411-2.5584-0.3412-3.4113-0.1705 0-1.1939-1.0233-1.8762-1.3645l-34.795-0.8528c-11.769 0.6823-27.802-1.1939-39.059 0.3411l-0.3411-0.8528c-0.6823 0-1.3645 0.3411-1.3645 0.8528 0.3411 1.0234-0.6823 3.0702 0.8528 2.8996h0.5117c0.3411-0.6822-0.1706-2.0467 0.5117-2.5584 0.6822 1.8762-0.1706 4.2641 0.5117 6.3109 0.1705-0.6823-0.1706-1.8763 0.3411-2.3879l0.6822 2.2173c0.1706-0.3411 0.5117-0.5117 0.8529-0.3411-1.194 6.9931-0.5117 15.351-0.6823 23.367 0.5117 1.5351 0 3.0702 0.3411 4.6053 0.8529 0 1.7057-0.1706 2.5585-0.1706-0.1706 0.1706-0.3411 0.1706-0.5117 0.3411l13.645-0.3411c-0.8528 0-1.7056-0.1705-2.5585-0.1705 18.592-0.3412 37.354-0.5117 55.945-1.0234-0.3412 1.1939-1.8762 0.1705-2.2174 1.1939 1.194 0.8528 2.0468 0 3.0702 0.1706 0.1706-0.8528 1.8762-2.0468 2.729-3.2407 0.3412 0 0.5117 0 0.5117 0.1705-0.1705 1.3645-2.3879 2.2174-2.0468 3.7524-1.7056 0.1706-2.729-0.1705-4.0935 0.5117 0.8528 2.0468-0.3411 3.923 0.8528 5.7992 1.194 0.1706 2.3879-1.0234 3.2407 0.3412-1.0233 0.6822-3.0701-0.5117-3.4113 0.6822-5.6286-0.3411-11.598 1.3645-17.398 1.7057 5.6287-0.6823 11.94-0.3412 17.568-1.194 0.5117 0.3412 1.5351 0.1706 2.0468 0.1706-0.3411 1.0234-1.194 0.5117-2.0468 0.6822-0.5117 1.5351-0.6822 3.7525-1.8762 4.6053-0.1706-1.3645 1.194-2.729 1.0234-4.2641h-6.4815c0.3412 0.8528-1.0234 0.5117-1.5351 0.8528-5.1169 0-9.7221 1.194-14.839 1.194-0.6822-1.3646-2.8996 0-3.4113-1.3646-0.5117 0.3412-1.0234 0-1.5351 0.1706-0.3411-0.3411-0.3411-0.6823-0.1705-0.8528 9.0399 0 19.274-1.5351 27.802-3.0702-0.1705-1.8762 0.1706-3.923-0.6822-5.6286-0.1706 0.1705-1.0234 0.1705-0.5117 0.6822-1.194 0.1706-2.0468 0.8529-3.2408 0.8529-4.2641 0.1705-8.0165 0.1705-11.94 1.0233 3.2407 0.3412 6.8226-0.3411 10.234 0-2.0468 0.3412-4.0936 0.5117-6.3109 0.3412-1.8762 0-5.1169-0.3412-5.6286 2.0467-0.6823 0.3412-1.3646-0.1705-2.2174-0.5116 0.1706-0.5117-0.1705-1.0234-0.6822-1.194-2.3879 0.3411-5.4581 0-7.3343-0.5117 0-0.8528-1.3645-0.5117-1.3645-1.7056-12.281-1.3646-24.391 0.6822-36.16 0.8528-0.5117 0-1.1939-0.1706-1.0234-0.8528-0.3411 0.6822-1.3645 0.5117-1.8762 0.1705l0.1706 2.3879c7.5048 0.6823 15.351-1.0234 22.856-1.7056 0.6822 0.8528 2.0467 0.8528 2.5584 1.7056 0-0.5117-1.3645-0.5117-0.8528-1.1939 3.7524-0.8528 9.0399-0.1706 12.963-0.1706 0.1706 1.3645 1.5351 1.194 2.5585 1.194 0 3.2407-0.6823 6.652-0.1706 9.7222 8.6988 0 17.739-1.5351 26.608-0.6823l-0.8528 0.6823c-8.1871-1.0234-16.545 0.3411-25.414 0.8528-0.3412 0.1705-0.5117 0.8528-1.194 0.6822-0.1705-3.5818 0.5117-6.4814 0.3411-9.8927-0.6822-0.3411-1.1939-0.5117-2.0467-0.3411-0.8529 1.535 0.6822 2.729 0.3411 4.0935 0.1706-0.1706 0.5117 0 0.6823 0 0.1705 0.3411 0.6822 0.6823 0.1705 0.8528-0.1705-0.1705-0.5117 0-0.8528-0.1705-0.6823 0.6822 0 2.0467-0.6823 2.729-1.7056-0.1706-4.6052-0.1706-6.1403 0.8528-0.3411-1.3645-2.0468-0.1705-2.729-0.3411-1.3645 0-3.4113-0.3411-4.6053 0.6823-7.8459-0.1706-16.545 0-24.902 0.5117-0.3412 3.0701-0.1706 6.3108-0.3412 9.381-0.6822 0.1706-0.3411-1.1939-1.1939-1.0234-1.5351 0.8528-2.3879 1.8762-3.5819 2.8996 0.8529 0.5117 1.8762-0.5117 3.0702-0.3411-2.8996 2.2173-6.9932 3.7524-9.2105 6.9931-1.7056 7.3343-2.8996 15.351-3.0702 23.197-0.3411 0.1705-0.6822 0.3411-1.0234 0.3411l-0.1705-1.3645h-0.5117c0.6822-4.9464 0.5117-12.451 1.8762-17.398-2.2173 6.3109-2.3879 12.281-2.8996 19.444-3.2407-1.1939-7.1637 0.1706-10.916-0.1705-5.2875 1.5351-10.746 1.1939-14.498 6.652-3.4113 4.7758-5.4581 10.234-7.846 15.692 0.8528-4.2642 3.2407-8.0166 3.5818-12.281 3.923-7.846 13.475-11.087 21.321-11.087l7.6754 0.1706c0.3412-9.8928 1.194-21.662 8.6988-29.167 2.388-1.8762 4.9464-3.0702 7.5049-4.4347 0.5117-12.622-0.3411-23.879-0.3411-37.695 0-4.7758 0.3411-8.0166 0.8528-12.451-6.3109 0.1705-12.792-0.3412-19.103 0.6822 0.5117-1.7056 2.0468-0.1705 3.4113-0.8528 5.6287-0.8528 10.746 0.3411 15.863-1.194 0-0.6822-0.8529-0.5116-1.194-0.8528-7.846 0.1706-16.033 1.0234-23.879 0.5117 3.0702-0.3411 6.6521-0.5117 9.8928-0.8528-2.0468-0.8528-5.117 1.0234-6.3109-1.194 2.3879 1.0234 4.7758 0.3412 6.9931 0.3412v-1.0234c3.7525-0.1706 8.5283-0.3411 12.451-0.5117 0-0.8528-0.6823-1.7057-1.0234-2.729-4.2641 0.5116-7.1637-3.2408-9.8928-6.1404-0.8528-1.1939-1.1939-2.5584-1.5351-3.923l-3.7524 0.1706c0.1706 0 0.1706 0.1706 0.1706 0.3411-1.7057 0.1706-3.2407 0.1706-4.7758 0.6823 1.8762 1.1939 3.7524 0.5117 5.6286 0.6822-11.257 1.0234-22.685 1.8763-34.113 2.2174 9.0399-1.194 18.25-1.0234 26.949-2.2174l-0.6823-0.1705c-18.08-0.8528-36.16 1.7056-54.24 2.3879-0.6822-0.5117-0.6822-0.5117-1.1939-1.194-0.6823 0.1706-1.7057 0.6823-1.7057-0.1705 8.8694-0.5117 17.739-0.6823 26.608-1.7057-16.545-0.5117-33.09-0.5117-49.293 1.194-3.4113 0.5117-7.3342 0.3411-10.916 1.1939-0.5117 7.5049-5.4581 13.134-8.8694 19.274-1.0234 1.7057-2.3879 3.2408-3.4113 5.117 4.9464-5.6287 9.04-12.451 12.281-19.103-3.0702 9.5517-10.234 17.909-17.056 25.926-11.428 11.94-25.244 20.638-40.424 23.708-5.7992 0-12.622 1.3645-18.762 2.0468-4.4347 0.8528-10.234-0.3412-12.281 4.7758-0.1706 0.8528-0.5117 1.8762-0.8528 2.729 2.0467-2.0468 4.7758-3.0702 7.3342-4.7758 4.4347-1.194 9.04-1.8762 13.475-1.7057l-0.5117 0.3412c4.2641 0.1705 8.8693-2.2174 13.304-2.0468-6.1403 1.0234-12.622 3.2407-19.103 3.7524-0.8529 0.5117-1.8762 0.5117-2.7291 1.3645 1.3646 1.194 2.7291 0.5117 4.0936 1.5351 11.087 6.1403 21.15 16.545 25.073 29.337 1.5351 5.6286 1.0234 13.304-1.3645 18.421-0.8528 3.2408-3.5819 5.6287-5.7992 8.1872 0.6822 0 1.5351-0.8529 2.3879-1.0234 5.9698-0.1706 12.451-2.7291 18.08 0.1705 4.4346 1.7057 8.8693 3.5819 11.598 7.1637-2.7291-1.3645-4.2642-3.0701-6.9932-4.6052-5.4581-2.5585-12.11-4.2641-18.25-2.5585-1.194 0.6823-2.5585 1.194-3.4113 2.0468 4.2641 0 8.0165-2.2173 12.792-0.8528 3.4113 1.5351 7.5049 1.8762 10.746 3.923 3.0702 2.0467 7.5049 4.7758 7.5049 9.0399 2.0467 6.652 6.3109 13.816 12.792 17.909 6.4815 4.4347 15.18 5.6286 23.026 3.4113l0.3411-0.6823c2.0468-0.1705 3.7524 0 5.4581-0.8528-1.0234-0.3411-2.7291 0-4.0936 0.5117 0-0.8528 1.0234-0.5117 1.3645-1.0234 3.2408 0.1706 6.4815-0.5117 9.3811-1.8762-8.5283 0.8528-18.933 3.7524-27.632-0.1706-2.8996-0.1705-5.2875-2.3879-7.846-3.7524 1.8762 2.0468 4.7758 4.6053 8.1871 4.7758-2.5584 0.6823-5.1169-1.5351-7.5048-2.729-0.3412 1.0234-1.194-0.5117-1.7057-0.1706 0.5117 0.5117 1.0234 1.0234 1.194 1.5351-0.1706 0.3411-0.5117 0.1706-0.6823 0.1706-3.7524-2.5585-6.1403-6.1404-7.6754-10.063-0.3411-0.5117 0.3411-0.5117 0.6823-0.6823 0.6822 0.3411 0.5117 1.3645 1.3645 1.8762-0.6823-5.7992-2.0468-12.281-3.7524-18.421l-1.7057-2.0468c-0.1705 0.1706-0.3411 0.1706-0.6822 0.1706-1.0234-3.923-5.7992-5.1169-8.6988-7.5048-5.9698-2.2174-12.451-2.7291-18.25-1.7057 1.8762-1.1939 4.9464-1.0234 7.1637-1.1939 7.1638 0.1705 13.816 2.3879 18.933 7.5048 1.8762 1.8762 3.4113 3.2407 4.6053 5.2875 0.8528-0.6822 0-1.3645 0.3411-2.2173 1.3645-4.9464 4.7758-9.04 8.5282-12.622 9.5517-9.7222 24.902-11.257 37.865-9.8928 8.5283 0.8528 19.103 0.5117 27.632 4.4347 3.0702 1.8762 5.9698 4.7758 6.652 8.0166-1.0234-0.5117-0.8528-1.7057-1.535-2.2174-3.7525-4.9464-9.5517-8.0165-15.863-8.0165-9.5516-1.0234-19.786-2.5585-29.337-0.1706 6.9931-0.1706 14.498 0.5117 21.662 0 0 0.6823-1.0234 0.5117-1.5351 0.6823h-7.6754c-0.3411 1.0233-2.3879 0.8528-2.729 1.535 1.3645 1.0234 3.0702 1.3646 4.2641 2.7291-0.3411 4.7758-6.3109 6.4814-9.0399 9.381-4.9464 4.4347-7.846 10.746-7.6754 17.227 0.8528 4.4347 2.0467 10.063 7.1637 11.94 1.1939 0.5117 2.729 0.8528 3.2407 2.2174-1.1939 1.7056-3.4113-0.1706-5.2875-0.5117-5.2875-3.0702-9.5516-9.3811-9.8928-15.692-0.8528-6.9932 1.5351-13.134 6.4815-17.568l0.3411 0.3412c-5.458 4.4346-7.1637 11.428-5.9697 18.421 0.6822 2.729 1.3645 5.458 3.4113 7.8459 0.6822-4.4346-1.8762-8.6988-0.8529-13.475 0.8529-4.0935 2.7291-7.1637 5.6287-10.063 0.1705-0.1706 0.5117 0 0.6822 0.3411-1.3645 0.3412-2.2173 1.5351-2.8996 2.7291l1.194 0.3411c2.729-5.1169 9.3811-7.1637 12.622-11.769 0.6822-2.729-2.7291-3.0701-4.2641-4.0935-0.8529 0.6822-1.0234-0.6823-1.8763-0.8529 0.1706-1.0233 1.194 0 1.0234-1.0233-11.94-0.8529-24.561 2.3879-33.772 10.404-3.2407 4.2641-5.2875 9.5516-6.4814 14.498-1.0234 1.7057 0.8528 3.4113-0.1706 4.7758 0 6.1404 2.3879 12.281 7.846 15.692 10.234 6.8226 22.856 5.2875 34.284 2.8996 10.404-2.8996 21.15-5.7992 29.337-14.157 1.8762-3.5818 5.117-6.8226 5.9698-11.087 1.0234-4.7758 2.0468-10.063-0.5117-14.157-0.3411-1.0234-1.3645-0.1705-1.7057-0.8528 0.3412-0.6823 1.0234-0.3411 1.5351-0.1706 1.194 1.7057 2.2174 3.7525 3.0702 5.6287 0.3411-0.1706 0.3411-0.5117 0.1706-0.8528 1.1939 0.1705 1.0233 2.5584 1.535 3.4112-0.5117 3.5819-1.3645 7.5049-3.7524 10.404 1.3645 0.5117 1.0234-1.8762 2.2174-1.3645-0.5117 4.2641-3.4113 7.5048-6.8226 10.404-8.0166 5.4581-19.786 10.063-30.19 13.986 6.3109 0 12.281-3.2407 17.909-4.2641-2.0468 1.7057-5.1169 1.8762-7.6754 2.8996-6.652 3.7524-15.18 2.7291-22.003 6.4815l-0.6822-1.0234c-11.428 2.8996-23.026 0-30.702-8.8694l-2.729-3.7524c0.1706 1.8762 1.1939 3.923 2.729 5.2875-2.5584-0.6823-2.8996-3.4113-3.5818-5.2875l-4.2641-12.281c-6.6521-7.3342-17.056-11.257-26.779-8.5282-4.2641 0.6823-8.5283 2.2173-11.428 5.4581 1.194 0 1.8763-1.7057 2.7291-1.5351-1.7057 0.8528-3.2407 3.4113-4.7758 4.6052 2.0467-0.8528 3.2407-2.8996 5.1169-4.0935-2.0468 2.729-4.9464 5.1169-7.1637 7.846l-1.7057 0.3411c1.8763-2.0468 2.388-4.2641 4.0936-6.3109-3.2407 0.8528-4.4347 4.6052-7.5048 6.4815l-0.3412-0.3412c3.0702-2.729 6.4815-6.3109 8.8694-9.5516-1.8762 0.6823-3.0702 3.5819-5.117 3.923 2.5585-2.5585 5.117-5.9698 6.4815-9.3811-1.1939 0.5117-2.0468 2.8996-3.5819 3.4113 1.7057-3.923 5.4581-7.6754 6.8226-12.11 0.5117-3.5818 2.5585-6.4814 1.7057-10.234-0.8528-4.7758-2.0468-9.381-4.0936-13.475-0.6822-1.3645-2.0467-1.7056-2.3879-3.0701l2.7291 2.0467c-1.0234-2.5584-1.8763-5.1169-4.4347-6.8225 1.1939-0.5117 1.8762 1.0233 2.5584 1.1939-1.3645-4.2641-5.9697-4.9464-8.3576-8.3577 1.1939 0.6823 2.8996 1.194 4.2641 1.8762 0.1706-0.8528-1.8762-0.5117-1.0234-1.7056 0.6823 0.5117 2.0468 0.5117 1.8762 1.5351 0.6823 0.3411 0.8528-0.3412 0.6823-0.8528-1.194-2.5585-3.923-4.2642-6.652-4.9464-3.4113-1.194-6.4815-4.0936-10.575-3.4113-0.8528 0.3411-1.1939 1.1939-1.0234 2.0468-1.8762 0.3411-4.0935 0.8528-4.7758 2.8996-4.0935 8.8693-5.458 18.933-12.11 26.438 2.2174-2.5585 3.4113-5.9698 4.2642-9.2105-2.2174 3.7524-3.4113 7.846-6.6521 11.087 2.0468-1.8762 2.3879-4.9464 3.5819-6.9931-3.2407 4.4346-5.4581 9.381-9.3811 13.475l-0.3411-0.3412c5.6286-7.8459 10.404-15.01 13.134-24.22 2.3879-5.7992 2.3879-11.94 4.6052-17.568 1.8762-1.8762 5.2875-4.0936 8.5283-3.7524 6.9931-0.5117 14.839-1.7057 22.344-2.8996 0-2.2174 2.0467-4.0936 3.4112-5.6287 6.1404-6.3109 14.839-9.8927 23.538-9.8927 6.8226-6.3109 12.281-13.134 18.25-19.786l1.194-2.5584-1.3646 0.6822c0.1706-0.6822 0.1706-1.0234-0.3411-1.535 0.5117-2.388 0.5117-5.6287 3.2407-6.6521 0.5117-0.6822 1.3646-0.3411 2.0468-0.3411 0.8528 0.6823 1.0234 1.0234 2.0468 0.8528 0.8528-1.3645 2.2173-2.8996 2.2173-4.4347-2.729-1.8762-6.3109-2.3879-9.5516-2.3879-1.7056 3.0702-5.1169 4.6053-8.1871 4.7758-3.0702 0-5.4581-1.8762-7.1637-3.9229 2.5585 1.7056 6.1403 4.4346 9.8927 2.729 2.388-0.1706 3.7525-2.729 5.117-4.4347 4.2641 0 7.1637 1.0234 10.746 2.729 1.7056-1.535 3.2407-3.5818 2.729-5.2875 7.3343 0 14.839-1.0233 22.003-1.535 16.204-0.5117 35.648-0.3412 52.022-0.3412 9.7222-0.6822 20.468-1.0234 30.702-1.5351 0.1705 3.4113 1.3645 7.3343 4.6052 9.3811 1.8762 1.0234 3.923 1.0234 6.3109 0.6823 0.1706 1.8762 2.0468-0.6823 2.729 1.0234 5.2875-0.3412 11.087 1.1939 14.328-4.0936 0.3411 0.3411 0 0.8528-0.1706 1.194 6.9932-2.0468 14.327-0.1706 21.491-2.5585 1.3645-1.0234 4.0935-0.3411 5.7992-1.194 8.1871-2.2173 15.521-6.1403 23.879-7.3343 2.5585-0.8528 3.7525 1.3646 4.7758 2.8996zm-4.7758 17.739c-5.458 0.3411-12.281 0.1705-18.762 0 6.4815-0.1706 12.11 0.1705 18.762 0zm-49.975 1.8762c-1.3646-0.3411-3.7525 0.1706-4.9464-0.5117 1.3645 0.3411 3.7524-0.5117 4.9464 0.5117zm38.206 0.6822 1.535-0.1705 3.4113 0.3411-4.9463-0.1706zm-3.923 1.0234 3.4113 0.1706-3.4113-0.1706zm17.398 1.194c-5.4581 0-11.769 0.8528-16.886 0h16.886zm-44.006 2.729h0.8528-0.8528zm18.25 21.662c-3.4113-0.1705-7.1637 0.3412-10.575-0.1705 3.2407-0.1706 7.5048-0.1706 10.575 0.1705zm-39.571 0.5117v-1.535 1.535zm38.377 0.5117c-3.0701 0-7.5048-0.1705-10.234-0.1705 3.4113-0.1706 6.652-0.3412 10.234-0.1706v0.3411zm9.04 2.3879c-0.8528 0.3412-1.3645 0.1706-2.3879 0.1706 0.6822-0.1706 1.8762-0.5117 2.3879-0.1706zm-11.598 1.7057c-0.3412 0-0.6823 0.3411-0.6823 0.5117l0.1706 1.1939c-0.5117-0.1705-0.3411-1.1939-1.194-1.535-0.5117 0.6822-0.1705 1.8762-0.3411 2.3879-0.5117-0.8529-0.3411-2.0468-1.3645-2.3879-0.3411 0.6822 0.1705 2.2173-0.5117 2.8996-0.5117-0.8529 0.1706-2.0468-0.6823-2.388-0.8528 0.3412-0.3411-0.8528-1.0234-0.6822-0.8528 1.0234 0.5117 2.729-0.6822 3.7524 0-1.3645 0.3411-3.4113-0.8528-4.2641-0.6823 0.8528 0.3411 1.7056-0.3412 2.5585-0.3411-1.194-1.0234-2.2174-2.2173-2.2174 0 1.3645 1.1939 3.4113 0 4.9464-0.8528-1.7056-0.3411-4.0936-0.8528-5.9698 3.5818 0 7.1637-0.5117 10.404 0l0.1706 1.194zm-12.963 0.1706 0.6822 2.8996c-7.3343 0.8528-16.374 0.6822-24.391 1.3645v0.5117c6.652 0.3411 13.816-0.5117 20.468-0.5117-6.3109 1.0234-12.622 0.1705-18.762 1.3645l1.0234 1.0234c6.9931-0.8528 14.669-0.6823 21.662-1.3645 0.1706 0.5117-0.3411 0.8528-0.1705 1.3645-0.3412-1.194-1.7057-0.3411-2.2174-0.1706 0 0.1706 0.3411 0.1706 0.5117 0.1706-6.9931-0.1706-14.498 0.8528-21.491 0.5117-0.3411-0.8528-1.0233-0.5117-1.535-0.5117v0.6822-5.9697l0.6822 0.6822c7.3343-0.5117 15.01-1.5351 22.685-1.3645l0.5117-1.0234c0 0.3412 0.3412 0.3412 0.3412 0.3412zm1.7056 2.2173-0.1706-1.5351h0.3412l-0.1706 1.5351zm6.1403 2.8996 0.1706-0.6823v0.6823h-0.1706zm-5.2875 0.8528c0.1706 0.5117-0.5117 0.6823-0.6822 1.194 0.1705-0.5117 0-1.3645 0.6822-1.194zm-5.7992 1.8762c-2.2173 0.3412-4.0935 0-6.3109 0 0.8529 0.1706 4.2642-0.6822 6.3109 0zm-17.909 0.5117h-3.0701v-0.6822c0.8528 1.0234 2.5584 0.3411 3.0701 0.6822z"/> <path class="fil6" d="m278.12 59.222c0.3411-1.3645-0.3412-3.0702 0.6822-3.923 0.1706 1.7056-0.3411 3.7524 1.0234 4.9464 0.3411-0.3412 0-0.8529 0.6823-0.6823 1.0234 6.1403-0.3412 11.769 0.6822 17.739l-0.5117-0.1705c-0.5117 0.8528 0.1706 2.3879-0.1705 2.729-0.5117-2.3879-0.5117-4.4347-1.194-6.652v12.451c0.8528 1.194 0.8528-0.8528 1.7057-0.6822-0.3412-0.1706-0.8529-0.6823-0.3412-1.0234 7.6755-0.8529 15.521-0.8529 23.026-0.5117l-2.0468 0.5117c0.6823 0.5117 1.3645 0.1705 2.3879 0.3411-0.6822 0.5117 0.5117 0.6823 0.3411 1.3645-6.652 0.3411-14.327 0.3411-21.491 0.6823-0.1706 0.1705 0 0.6822-0.1706 0.8528 6.9932 1.194 12.622-0.6823 20.468 0l0.3411 0.6823c-5.1169-0.6823-10.575 0.6822-15.862-0.1706-1.0234 0.6823 0.3411 1.3645 0.1706 2.0468 0.3411 0 0.5117 0.1705 0.6822 0.3411-0.5117 0.1706-0.5117 1.0234-1.1939 0.6823-0.3412-0.8529-1.5351-0.3412-1.7057-1.194-0.3411 0.5117-0.3411 1.3645-1.1939 1.3645-0.3412-0.1705-1.0234 0-1.3646-0.1705 0.1706 1.7056-1.3645 0.1705-1.535 1.535l-0.8529-0.5117c0 2.0468-2.3879 2.388-1.535 4.2642 1.0233-0.1706 0.1705 1.0234 0.6822 1.3645 0-1.0234 2.0468-0.5117 1.7057-1.8762 8.1871 0.5117 15.862-1.3645 23.538-1.0234-6.3109 1.0234-13.816 0.5117-20.638 1.8762 7.1637 0.6823 12.622 0.3411 19.274-0.6823 0.1705 0.8529-1.3645 0.5117-0.8528 1.5351l-1.194-0.3411-16.204 1.5351c-0.5117 1.0234 0 2.0467 0 2.8996 0.3411-0.8529 0.1705-2.2174 0.8528-2.5585-0.5117 1.5351 0 4.0936 0.8528 5.7992-1.194-0.1706-1.194-2.5585-2.5585-1.7056l-0.6822 4.6052c-1.0234 0.1706-0.3412-1.0234-0.8529-1.194-0.5116 1.0234 0.1706 3.4113-1.535 3.0702l-0.1706-0.3411c-0.5117 0.3411-0.3411 1.0234-0.1706 1.3645-0.1705 0.3411-0.5117 0.5117-0.6822 0.1706-0.5117 0.6822 0.3411 2.0467-0.8528 1.535 0-0.3411 0.1705-0.8528-0.1706-1.0233-0.5117 0.1705 0.1706 1.1939-0.8528 1.1939-0.5117-2.5585 0-6.9931-0.8529-9.2105 0 0.1706 0.1706 0.1706 0.1706 0.3411 0.3411-0.3411 0.3411-1.0233 0-1.535-0.1706 0-0.5117 0.3411-0.5117 0.5117-0.3411 3.7524 1.0234 7.8459-0.8528 11.257-0.5117-2.8996-0.6823-6.9931-0.8528-10.916-8.6988-1.0234-17.739 0.1706-26.608 0.1706l-1.0234-0.8529c-2.7291 0-5.4581 0.5117-8.1871 0l-0.3412-0.8528c-1.535 0.3411-2.8996 0-4.6052 0 0-0.1706-0.1706-0.3411-0.1706-0.6823-0.6822-0.1705-2.0468 0.1706-2.2173-0.5116 1.5351-0.3412 3.923 0.3411 4.7758-1.0234-2.3879-0.1706-4.9464 0-7.1637 0.1705 0.5117-1.0234-1.7057-0.3411-0.8528-1.7056 0.8528-0.1706 1.535-0.1706 2.3879-0.3411-1.194-0.6823-2.8996-0.1706-4.2642-0.6823 15.863-0.8528 31.725-1.8762 47.758-1.5351 0.5117-1.0234 0-1.5351 0.1705-2.5585-9.381 0.1706-20.127-0.5117-29.849-0.1705-0.1706-0.5117 0.3411-0.3412 0.5117-0.8528-3.5819 0-7.846 0.5116-11.257 0 0.3412-0.5117-0.8528-0.6823-0.1705-1.194 12.963-2.0468 28.143 0.6823 40.424-0.3411 0.5117-0.1706 0.5117-0.5117 0.1706-0.8529-12.963 0.5117-26.608-2.0467-39.742-0.1705-3.0702 0.6822-6.1403 1.8762-8.3577 4.4347-0.5117-1.5351 1.7057-2.0468 2.5585-3.0702 4.7758-2.729 10.234-2.0468 15.18-2.729 9.5517 0.3411 20.127 1.0234 30.531 0.3411 0.1706-8.8694-0.3411-18.08-0.6822-27.29-13.986 1.0234-29.508 1.3646-43.494-0.6822-1.8762-0.8529-4.4347-1.194-5.117-3.4113 0.1706-0.6823 0.5117-1.7057 1.194-1.8762 0.3411 0.8528-1.3645 1.8762 0 2.729 0.6822 0.6823 1.5351 1.194 2.729 1.194l0.3411-0.6823c1.0234 0.3411 2.7291 0.8528 3.5819 0.5117-1.7056-1.3645-4.2641-0.6823-5.7992-1.7057 3.2407-0.1705 5.6286 1.0234 8.8694 1.194 5.1169 0.5117 10.234 0.5117 15.351 0-3.5819-1.7057-7.846 0.3411-11.087-1.3645 1.7056 0 3.7524 0.3411 5.1169-0.3412-0.8528-0.3411-1.8762 0.3412-2.5584-0.6822 2.729-0.3411 5.7992 0.5117 8.1871-0.5117 7.3342 0.6823 15.351-0.3411 22.514 0.1706-0.1706-1.0234 0.5117-2.0468 0-2.8996-15.521-0.5117-29.508-0.1706-44.858 1.7056-0.1706-1.0234 1.3645-0.6823 1.7056-1.1939-3.5818-0.1706-7.3343 0.1705-10.916 0.1705v2.5585h-5.9698l-0.5117 0.8528c0.3412 10.575-1.3645 19.786-1.1939 29.678-0.6823-9.8928 1.0234-20.297 0.6822-30.19l-5.2875-0.1705c-1.0234-1.194 0.6823-2.5585 0.1706-3.7525-0.5117-0.3411-1.7057 0-2.2174-0.3411-0.3411-0.6823 0.5117-0.5117 0.5117-1.0234-0.1705-0.6822-1.1939 0-1.1939-0.8528-0.3411 7.3343-0.6823 14.839-0.8528 21.832-0.3412 13.304 1.535 26.608 1.0234 40.083-1.8763-5.4581-0.1706-11.769-1.7057-17.568-0.6823 0-0.8528 0.5117-1.3645 0.8528 0.5117 5.6287 0.1706 12.11 0.5117 18.421 1.3645-1.1939 1.7056 1.7057 2.8996 2.3879 1.0234 0.6823 2.0468 1.0234 3.2407 1.194 0.8528-1.0234 3.5819 0.1706 3.2407-1.5351 1.0234 0.3411 1.3646-0.1705 1.3646-1.1939-2.3879-0.5117-5.7992 1.0234-7.6755-1.194v-0.5117c1.8763 0.3411 3.923 2.0468 5.9698 0.1706-1.7056-0.5117-4.0935-0.3412-5.6286-0.8528v-0.6823c11.257-0.3411 23.708-1.194 35.819-1.0234-10.404-1.3645-20.809 0.5117-31.043-0.5117 18.592-0.6822 37.865 0.5117 56.969-0.1706-0.5117-0.6822-1.8762 0.1706-2.0468-0.8528h7.846c0.1706-0.3411 0-0.8528 0.5117-1.1939 1.194 0.3411 0.3411 1.5351 0.3411 2.2173-0.1705 0.3411-0.5117 0.6823-0.5117 0.8528 0.3412 0.6823 0.8529 0.1706 0.6823 1.194-1.0234-0.1706-0.5117 2.0468-2.0468 1.3645-1.7056 0.8528-3.5818 0.3411-5.2875 0.5117v-0.3411c-9.8927-0.3412-20.979 2.0468-30.872 0.8528v-0.5117c4.0936 0.8528 6.9932 0.3411 11.428 0 0.3412-0.1706 0-0.3411 0.3412-0.5117-8.6988-0.3411-18.421-0.5117-27.29 0.5117 0 0.6823-0.1706 1.194 0.5117 1.8762 0.5117 0.6823 1.8762-0.8528 1.8762 0.6823 16.886 0 35.989 0.3411 52.704-0.6823l2.5585-2.2173c0.3411 0.8528-0.8528 1.3645 0 2.0468-1.0234 1.0233-2.3879 2.5584-3.7524 3.0701-19.786 0.1706-39.742-1.0234-59.527-1.1939-1.194 0-2.5585 0.3411-3.5819 0.8528-2.5585 0.1706-5.2875-0.1706-7.846-0.6823-0.5117-0.5117-0.3411-1.3645-1.1939-1.8762-0.5117 0.5117 0.3411 0.8528-0.1706 1.3645l-0.6822-0.3411c-0.3412-4.0936 0.5117-9.3811-0.1706-13.645-0.6823 0 0 0.8528-0.5117 1.194-0.8528-2.5585-2.729-4.4347-3.5819-7.1637-0.1705 1.0233 0.5117 2.0467 0.3412 3.2407-7.5049-8.8694-2.0468-29.508 0.5117-38.889 1.1939-0.5117 0.3411-2.3879 0.8528-3.4113h0.5117c0 14.669-1.3645 29.678 1.8762 44.176-1.0234-17.056-0.6823-34.113-1.0234-51.169l0.3411 0.6822c0.5117-0.1705 0.1706-1.7056 1.0234-0.5117-0.8528 6.4815 0.8528 12.622 0.5117 19.103h0.5117c0.3411-6.3109 0.5117-11.94 0.3411-17.909 0.1706 0.1706 0.3412 0.1706 0.6823 0.1706 0.6823-1.194 0-2.5585 0.5117-4.0936 0.6823 1.194 2.0468 0.5117 3.4113 0.8528 8.3577 0.1706 17.739-1.0234 26.779-0.8528l35.989 0.5117c1.0234-0.6823 3.0702 1.0234 3.5819-0.6823 0.8528 2.2174 1.0234 3.7525 2.2173 5.9698 0.1706-2.3879-0.1705-5.1169 0.3411-7.1637 0.5117 4.0935 0.5117 8.3577 0.8529 12.622zm-35.819-10.575 2.3879 0.1705-2.3879-0.1705zm-10.746 0.1705c-0.8528 0.1706-1.8762 0-2.729 0 0.8528-0.1705 1.7056 0 2.729 0zm43.665 47.246v0.5117c-0.3412 0.1705-1.0234-0.6823-0.8529-0.8529 0.3412 0.1706 1.0234-0.3411 0.8529 0.3412zm0.1705 2.3879v0.5117c-6.4814-0.3412-11.94 0-18.421-0.3412 6.1404-0.5117 13.304-0.5117 18.421-0.1705zm-42.3-0.5117 0.1705-0.1706 2.8996 0.1706h-3.0701zm11.428 2.3879-8.8694 0.1705c3.2408-0.3411 6.3109-0.1705 9.3811-0.3411l-0.5117 0.1706zm28.996 9.5516c-1.7056-0.8528-3.7524 0.6823-5.1169-0.6823h4.7758l0.3411 0.6823zm-22.856 1.8762 9.5517-0.8528 3.2407 0.3411-12.792 0.5117z"/> <path class="fil6" d="m83.159 166.17c0 0.6822-0.5117 1.5351-0.3412 2.0468l4.2642-6.6521c-0.1706 1.8762-1.5351 3.5819-2.2174 5.4581l0.5117 0.5117 1.194-1.5351 0.3411 0.1706c-0.8528 2.0468-2.0468 4.0935-2.3879 6.1403 0.5117-1.8762 2.5585-2.0468 3.0702-3.923 0 2.3879-2.2174 4.6053-2.2174 6.9932 0.5117-2.0468 2.5585-3.2408 3.2407-4.7758-1.1939 2.5584-0.5117 5.2875-1.535 7.8459 0.8528-0.8528 0.6822-2.3879 1.535-3.0701 0.1706 1.5351-1.1939 3.2407-0.5117 4.6052l1.3646-3.7524c-1.194 4.2641-1.8762 8.3577-2.8996 12.622l-0.5117-0.6823c-0.5117 1.194-0.8529 2.3879-0.6823 3.5819l0.8528-2.3879c0.1706 0.8528-0.6822 3.0701-1.7056 3.7524l-0.3411-0.3411c0.3411-3.923 3.0701-7.3343 2.8996-11.598-1.7057 3.5818-2.5585 7.5048-4.6053 10.916-1.1939-4.6052 2.729-8.8694 2.0468-13.475-1.3645 2.5585-1.3645 5.7992-3.4113 8.1871-1.194-1.1939 0.3411-3.0702 0.1706-4.4347-1.194 1.8762-1.194 4.0936-2.7291 5.6287-1.0234-0.3412 0-1.3646 0-2.0468 0.6823-2.3879 2.0468-4.7758 2.3879-7.3343l-0.5117-0.5117c-1.5351 2.3879-2.0467 5.2875-3.7524 7.1637-0.3411-1.5351 1.5351-2.8996 1.0234-4.4347-1.3645 1.8763-1.3645 4.2642-2.729 6.1404 2.0467-7.6754 6.1403-14.669 8.1871-22.173-4.7758 7.8459-7.6754 16.886-11.257 25.414 1.3645-5.2875 3.4113-10.063 5.1169-15.01-3.0701 5.4581-5.2875 11.428-7.6754 17.056 0.5117-4.7758 3.5819-9.2105 4.2641-13.986-3.7524 6.8226-5.9697 14.157-8.1871 21.662h-0.5117c1.5351-5.2875 3.4113-10.404 4.9464-15.862 0 0.3411-0.1705 0.6822 0.1706 0.6822 0.1705-0.3411 0.6822-1.0234 0.3411-1.5351l-0.3411 0.3412c0.3411-0.5117 0.6822-1.194 0.5117-1.7057-5.6287 9.8928-7.5049 22.003-10.063 33.601-0.5117 4.9464-0.8529 9.7222-0.8529 14.669-0.8528-2.5585 0-5.7992-0.5117-8.6988-0.3411 0.3411 0.1706 1.1939-0.6822 1.0233-0.1706-0.8528 0.6822-1.7056 0-2.2173-0.8528 10.575-0.5117 20.297 0.6822 29.849h-0.1705c-2.0468-16.715-1.8762-33.601 2.5584-50.146 1.5351-1.0234 1.0234-3.2407 1.8763-4.7758 0.3411 2.2173-0.6823 4.2641-0.6823 6.3109 1.8762-4.2641 2.2173-9.3811 4.0936-13.134 1.535-2.729 2.3879-5.9698 4.4346-8.5282l0.6823 0.8528c1.0234-1.7057 1.5351-3.923 3.0702-5.2875 0.1705 1.7056-1.0234 3.4113-1.0234 4.7758l5.1169-9.3811 0.8528-0.3411 5.2875-9.8928c0.3412 1.8762-1.3645 3.7525-2.0467 5.6287zm-23.367 50.487c0.1706-4.4346 1.5351-7.8459 1.8762-12.11-0.1706 4.0936-1.5351 8.0166-1.8762 12.11zm-0.1706 0.8529h0.1706v1.8762h-0.1706v-1.8762z"/> <path class="fil6" d="m69.173 225.52c0.3411-0.3411 0.1705-1.5351 0.8528-1.0234 1.3645 0.8528 0.5117 2.8996 0.6822 4.0936 0.8529-0.1706 0.1706-1.3645 1.0234-1.0234 0.6823 1.7056-0.8528 3.5818-0.1705 5.4581h0.5117l0.1705 3.4112c0.1706-0.3411 0.3412-0.5116 0.6823-0.3411 0.6822 3.7524-0.6823 8.1871 0.1705 12.281 0.3412-1.194 0.1706-2.7291 0.8529-3.2408 0.6822 1.8763-0.6823 3.2408-0.5117 4.7759h-0.6823c-0.8528-3.7525-0.1705-7.6755-0.1705-11.428-0.6823 2.3879-0.6823 5.4581-1.0234 7.846h-0.5117l-0.1706-2.0468-0.8528 0.3412-0.5117-2.0468c-0.5117 0.3411-0.3411 0.6822-0.8528 0.5117-0.1706-0.6823 0.3411-1.7057-0.6823-1.7057-0.1706-2.8996 0.1706-5.2875 0.5117-8.1871-1.194 3.923-1.7056 7.5049-2.3879 11.257-0.3411 0-0.5117 0.3411-0.5117 0.5117 0.6823 2.729-1.0234 4.9464 0.5117 7.3343 0 0.5117-0.1706 0.8528-0.8528 0.6822-0.3412-2.729-0.6823-5.7992-0.5117-8.6988 1.7056-6.9931 1.1939-14.839 4.2641-21.15l0.1706 2.3879zm-1.5351 6.9932c0-2.3879 0-4.0936 0.6822-6.1404l-0.6822 6.1404zm2.2173-3.2408-0.6822 7.3343 0.6822-7.3343zm0.1706 10.234c-0.3411-2.8996 0.3411-6.1403 1.0234-9.0399 0.1705 3.2407-1.3645 6.1403-1.0234 9.0399zm-2.7291-6.4814h0.3412l-0.1706 1.0233h-0.1706v-1.0233zm3.5819 7.6754 0.1706 0.1705v1.194l-0.1706-0.1706v-1.1939z"/> <polygon class="fil17" points="284.26 34.149 284.26 33.808 287.5 33.808"/> <polygon class="fil17" points="367.32 39.949 371.07 40.119"/> <path class="fil6" d="m198.46 41.484c-1.1939 3.0702-1.7056 6.6521-3.7524 9.5517-2.3879 3.5818-5.1169 7.1637-7.6754 10.404l0.8528 0.1706c-3.7524 4.7758-8.8693 8.1871-12.963 12.963v0.8528c-0.1706 0-0.3411-0.3411-0.5117-0.3411l-2.3879 1.8762c-0.3411 0 0-0.5117-0.1706-0.8528l12.792-14.157c5.7992-7.3343 11.087-15.521 14.327-24.561 0.3412 1.0234-0.1705 2.8996-0.5117 4.0935z"/> <polygon class="fil17" points="322.29 41.825 322.8 41.142 322.8 41.654"/> <polygon class="fil17" points="327.07 41.313 328.09 41.484"/> <path class="fil17" d="m190.27 40.631c-0.3411 0-0.6822 0.1706-0.8528 0.6823l1.0234-1.7057c0.3411 0.3412 0 0.6823-0.1706 1.0234z"/> <path class="fil6" d="m277.26 44.895c-10.234 0.3412-20.638 0.6823-30.531 1.3646-12.281 0.1705-23.538 0.5117-35.478 0-2.729 0.3411-6.8226-0.3412-9.0399 2.8996-0.1706-1.194 0.8528-2.2174 1.535-3.2408 24.22 1.0234 48.782-1.1939 73.343-1.3645l0.1705 0.3411z"/> <path class="fil17" d="m186.01 48.136c0.8528-1.8762 1.8762-3.923 2.8996-5.7992-0.6823 2.0467-1.7056 3.923-2.8996 5.7992z"/> <path class="fil6" d="m193.17 45.066c-1.1939 4.2641-4.0935 8.0165-6.3109 11.94-5.1169 6.8226-10.234 13.475-17.398 18.421-0.6822-0.5117-1.1939 0.8529-2.0467 0.6823 10.746-8.3577 18.762-19.103 24.561-30.702 0.3411-0.3411 0.6822-0.5117 1.1939-0.3411z"/> <path class="fil17" d="m296.88 47.794c-0.6823 0.3412-1.5351 0-2.3879 0.1706-0.1706-0.1706 1.5351-0.1706 2.3879-0.1706z"/> <path class="fil17" d="m179.19 50.012c-0.1705-1.0234 0.8528-1.0234 1.194-1.8762-0.3412 0.6822-0.6823 1.3645-1.194 1.8762z"/> <path class="fil17" d="m176.12 64.51c1.8762-3.923 5.6286-8.0166 8.1871-11.94-2.2174 3.9229-5.2875 8.0165-8.1871 11.94z"/> <path class="fil6" d="m177.14 54.958c-0.5117 1.3645-2.8996 0.3411-4.6052 0.3411v-1.5351l4.6052 1.194z"/> <path class="fil6" d="m381.65 63.998c0.8528 1.3645-0.3412 2.3879-0.5117 3.7524l-0.5117-0.6822c-0.1706 0.3411-0.1706 1.1939-0.8528 0.8528 0.1705-1.8762-0.1706-4.6053 0-6.652h0.5117c0.3411 1.7056-0.1706 2.8996 0.3411 4.4346 0.1705-1.3645 0.6822-3.4113 0.5117-4.9463 0.8528 0.5117 0.6822 2.2173 0.5117 3.2407z"/> <path class="fil17" d="m175.78 60.416c0.1706-1.0234 1.7057-2.8996 2.8996-4.2641l-2.8996 4.2641z"/> <path class="fil6" d="m378.75 61.269c-0.1706 2.5584 0 3.9229-0.1706 6.652h-0.5117c-0.1706-1.194 0.1706-2.2174-0.8528-2.7291l-0.5117 3.0702c-0.5117-0.1706-0.5117-0.5117-0.8528-0.8528-0.3412 0.3411 0 1.0234-0.6823 0.6822-0.1706-1.3645 0.3411-3.0701 0.5117-4.4346l0.6823 1.1939c0.8528-0.5117-0.3412-2.2173 1.0234-1.8762-0.1706 0.3411 0.1705 0.5117 0.3411 0.6823 0.8528-0.5117 0.3411-1.8762 1.0234-2.3879z"/> <path class="fil6" d="m383.52 63.316-0.5117 4.9464h-0.5117c-0.1706-2.0468 0.5117-4.0935 0.1706-6.3109 0.8528-0.1705 0.5117 0.8528 0.8528 1.3645z"/> <path class="fil6" d="m366.47 65.192c0.5117-1.0233 0.6823-2.3879 0.5117-3.4112h0.6823c-1.0234 1.8762 1.1939 3.7524 0 5.6286-1.0234-0.6823-1.194 0.6822-1.7057 0.8528-0.6822-0.3411-0.1706-1.5351-0.5117-2.0468 0.3411-1.535 0-3.5818 0.6823-4.6052l0.3411 3.5818z"/> <path class="fil6" d="m372.78 62.975v1.194c0.6823 0.3411 1.194-0.5117 1.0234-1.194 1.0234 0.8528 0 2.3879 0.8528 3.0702 0 0.6822-0.1706 1.3645-0.5117 1.8762l-0.6822-0.1706c-0.1706-1.0234 0.8528-2.3879 0-3.4113-0.6823 1.0234-0.8529 2.2174-1.0234 3.5819h-0.6823c-0.3411-0.8528 0.1706-1.3645-0.1706-2.2174-0.3411 0.5117-0.3411 1.194-1.0233 1.5351l-0.3412-0.5117 0.1706-3.5818c0.6823-0.1706 0.3411 0.8528 0.6823 1.1939 1.0233-0.1705 0.8528-4.4347 1.7056-1.3645z"/> <path class="fil6" d="m369.71 67.239c-0.1705 0.3412-0.5117 0.3412-0.6822 0l0.1705-4.6052c1.0234 1.0234 0.1706 3.0701 0.5117 4.6052z"/> <path class="fil6" d="m356.06 64.339c-0.3412 0.1706-0.1706 0.5117 0 0.8528 0.6822-0.6822 0.6822-1.8762 1.7056-1.8762l0.3411 1.5351 1.194-1.8762 0.1706 2.3879c0.6822-0.8528 0.8528-2.2173 1.535-2.5585l0.3412 4.2642c-0.8529 0.5117-0.6823-0.8529-1.194-1.3646-0.3411 0.8529-0.5117 2.0468-1.3645 2.2174l-0.5117-1.5351c-0.3411 0.3411-0.5117 0.6823-1.0234 0.3411l-0.3411-2.2173c-0.5117 0.8528-0.3411 2.8996-1.7057 2.729-0.5117-1.0234 0.5117-2.3879-0.3411-3.2407-0.8528 0.8528 0 2.8996-1.5351 2.8996-0.1705-1.194-0.1705-2.8996 0.1706-4.2641 0.6822 0.3411-0.1706 1.5351 0.5117 2.0468 0.8528-0.6823 0.6822-2.0468 1.7056-2.2174l0.3412 1.8762z"/> <path class="fil6" d="m364.25 68.092c-0.3412 0-0.5117-0.1705-0.6823-0.3411 0-1.7056-0.1706-3.923 0.8528-5.1169l-0.1705 5.458z"/> <path class="fil6" d="m348.22 68.603h-0.5117l0.1705-6.1403c0.3412 1.7057 0.5117 4.0936 0.3412 6.1403z"/> <path class="fil6" d="m350.09 64.169c-1.0234 1.535 1.3645 3.4113-0.5117 4.6052-0.5117-1.8762 0-3.923 0-5.9698 0.6823 0.1706 0.1706 1.0234 0.5117 1.3646z"/> <path class="fil6" d="m363.06 67.921c-1.7056-0.5117-0.1706-3.2407-0.6822-4.6053h0.6822v4.6053z"/> <path class="fil6" d="m282.38 74.403-0.6823-1.1939 0.3412-11.769c0.3411 4.0936 0.1705 8.3577 0.3411 12.963z"/> <path class="fil6" d="m283.57 76.108c-0.8528-4.7758-0.8528-9.3811-0.1705-14.669 0.5117 4.9464-0.1706 10.063 0.1705 14.669z"/> <path class="fil6" d="m312.91 62.463c0.1705 1.8762 0.3411 4.0936 1.0234 5.9698l0.6822-0.6823c0.3412 0.1706 0.5117 0.5117 0.1706 0.8528-0.3411 0.3412-0.6823 0.5117-1.194 0.5117l-0.5117-0.5117c-0.5117 0.1706-0.1705 0.8529-0.6822 1.0234-0.8528-2.3879 0-5.2875 0.5117-7.1637z"/> <path class="fil6" d="m343.61 66.386c-0.5117 0.6823 0.1706 1.194-0.5117 1.7056-0.8528 0.3412-0.5117-1.0233-1.3645-0.6822-0.1705-1.0234-0.3411-3.2407 0.1706-4.2641 2.3879 0 0.3411 3.2407 1.7056 3.2407z"/> <path class="fil6" d="m352.14 66.386c-0.1706 0.5117 0 1.0234-0.3412 1.3645-1.7056-0.6822-0.1705-2.8996-0.5117-4.0935 1.0234 0.1705 0 2.0467 0.8529 2.729z"/> <path class="fil6" d="m339.69 63.486c0.3412 0.8528 0 1.8762 0.3412 2.5585l0.8528-1.194c0 1.194-0.5117 2.5585-1.3645 3.0702-0.5117-1.3645-0.5117-3.4113 0.1705-4.4347z"/> <path class="fil6" d="m337.98 66.045 0.3411-0.5117c-0.5117 0.3411 0.3412 2.3879-0.8528 2.8996-0.3411 0-0.5117-0.3412-0.5117-0.5117l0.3411-4.2641c0.8529 0.5117 0 1.8762 0.6823 2.3879z"/> <path class="fil6" d="m345.66 67.41h-0.8528c0-1.0234-0.1706-2.5585 0.3411-3.5819 0.1706 1.3645 0.3411 2.2174 0.5117 3.5819z"/> <path class="fil6" d="m190.27 61.099c-3.923 4.4347-7.846 9.0399-12.11 13.304 0 0.3412 0.1706 1.0234-0.3411 1.194-0.1706 0-0.5117 0.1706-0.6823-0.1706 3.923-5.458 9.04-9.7222 13.134-15.01v0.6823z"/> <path class="fil6" d="m316.15 67.068c0.8528-0.6823 0.5117-2.3879 1.0234-3.4113 0.1706 1.7056-0.5117 3.5818 0.1706 5.2875l0.6822-0.3412c0.3411 0.3412-0.1705 0.6823-0.3411 1.0234-0.6823 0.5117-1.0234-1.1939-2.0468-0.5117-0.5117-1.7056-0.5117-4.0935 0-5.7992l0.5117 3.7525z"/> <path class="fil6" d="m327.75 63.657c0.3411 1.1939-1.0234 3.7524 0.3411 4.0935-0.1705 0.5117 0 1.5351-0.8528 1.7057-0.8528-1.8762-0.3411-4.2642 0.5117-5.7992z"/> <path class="fil6" d="m305.23 70.48c-1.0234 0.5116-1.0234-0.8529-1.3646-1.5351-0.1705-0.6823 0.3412-1.5351-0.3411-1.8762l-0.3411 2.5584c-1.3645 0.1706-0.1706-1.5351-1.0234-1.8762-0.8528 0.6823-0.1706 2.5585-1.3645 2.7291-0.6823-0.8529 0-2.5585-0.5117-3.2408-0.1706 1.0234-0.8528 1.8762-0.6823 3.2408l-0.5117 0.3411c-0.8528-0.3411-0.3411-1.194-0.6822-1.7057-0.6823 0.8529 0 2.0468-0.6823 3.2408-0.8528 0.3411-0.6822-0.5117-1.0234-0.8529-0.3411 0.6823 0.1706 1.7057-0.6822 1.8763-0.6823-1.0234-0.1706-2.5585-0.8529-3.7525l-0.3411 1.5351c-1.1939 0-0.3411-1.5351-1.1939-2.0468-0.5117 0.6823 0 1.7057-1.0234 2.0468-0.6823-1.0234-0.1706-2.0468-0.5117-3.2407-0.3412 0.6822-0.5117 1.5351-1.0234 2.0468-0.6823-1.8763-0.5117-4.6053 0-6.4815 0.5117 0.8528-0.1706 2.3879 0.5117 3.4113l0.8528-2.8996c0.1706 1.5351 0.3411 3.4113 0.3411 5.1169 1.0234 0 0.3412-1.0234 1.0234-1.535l0.1706 0.1705 0.5117-3.7524c0.5117 1.3645 0 3.0702 0 4.7758h0.8528c0.3411-1.5351 0.3411-3.5819 0.8528-4.9464 0 2.2174-0.1705 4.7758 0 6.9932 1.3646-1.8762-0.3411-4.0936 1.0234-6.3109-0.1705 1.7056 0 4.0935 0.3412 5.9698 1.1939-1.8763 0.6822-4.4347 1.3645-6.4815 0.8528 1.3645-0.3412 3.2407 0.3411 5.1169 1.194-1.535 0.8528-4.2641 2.2173-5.458 0.1706 1.8762-0.6822 3.7524-0.1705 5.2875 0.3411-1.8762 1.5351-3.4113 1.5351-5.2875 0.8528 0.3411-0.1706 1.8762 0.3411 2.3879l1.1939-2.8996c0.5117 2.3879-0.6822 5.2875 0.8529 7.3343z"/> <path class="fil6" d="m335.25 63.998c0.5117 0.6823-0.1706 1.7056 0.5117 2.3879 0-0.5117 0.5116-0.8528 0.6822-1.194-0.3411 1.194-0.1706 3.4113-1.5351 3.2408-0.3411-0.8528 0-1.8762-0.3411-2.7291-0.5117 1.194-0.5117 2.0468-0.6823 3.4113-0.1705-0.3411-0.3411-0.3411-0.5117-0.3411-0.1705-1.5351-0.3411-3.5819 0.1706-4.4347 0.3411 0.6823 0 1.0234 0.3411 1.8762 0.8529-0.5117 0.6823-1.535 1.0234-2.2173h0.3412z"/> <path class="fil6" d="m287.32 66.727c0 0.8529-0.1706 1.8762 0.1705 2.7291 1.0234-1.8762 0.8529-4.4347 1.7057-6.4815 0.3411 1.5351-0.3412 3.4113 0.3411 4.7758l0.3411-0.5117c-0.3411 0.8528 0.1706 2.7291-0.8528 2.8996l-0.5117-1.8762c-0.6822 1.194-0.1705 2.8996-1.3645 3.7524l-0.5117-0.5117c-0.6823 0.1706 0.1706 1.5351-0.8528 1.194-0.3411-1.0234 0.3411-2.5585-0.3411-3.7524-0.5117 0.8528 0.1705 2.5584-0.6823 3.2407-0.8528-3.0702-0.5117-6.1403-0.5117-9.0399h0.6823c0.1705 1.3645-0.6823 4.2641 0.5117 4.9463l0.5116-5.1169c2.0468-0.1706 0.8529 2.5585 1.3646 3.7524z"/> <path class="fil6" d="m329.97 68.262c1.3645 0-0.1706 1.3645 0.1705 2.0468-1.3645-1.7057-0.5117-3.7524-0.6822-6.1403 0.8528 0.5117 0.1705 3.0701 0.5117 4.0935z"/> <path class="fil6" d="m324.51 66.216c1.3645 0 0.5117-1.8762 1.5351-1.8762-0.3412 0.8528-0.1706 1.8762-0.3412 2.7291 1.0234 0 0.3412 1.535 0.3412 2.0467-1.194 0.3412-0.5117-1.0234-1.194-1.535-0.1706 0.1705-0.3411 0.5116-0.5117 0.3411-1.0234-0.6823 0.1706-6.8226 0.1706-1.7057z"/> <path class="fil17" d="m385.4 71.162c-0.8528-1.3645-0.1706-3.5818 0.1706-5.1169l-0.1706 5.1169z"/> <path class="fil6" d="m190.62 62.122c-3.923 4.9464-8.0166 8.8693-11.769 13.986-0.1706 0-0.3411 0-0.5117-0.1706 3.7524-5.1169 8.5282-9.7222 12.451-14.327l-0.1705 0.5117z"/> <path class="fil6" d="m321.95 68.945c-0.5117-1.194-0.3411-3.0702 0.1706-4.2641 0 1.3645 0.6822 3.0701-0.1706 4.2641z"/> <path class="fil6" d="m332.18 69.115c-0.1706 0.1706-0.3411 0.5117-0.5117 0.3412-0.3411-1.5351-0.8528-2.8996 0.1706-4.4347-0.6823 2.2173 1.7056 2.0468 0.3411 4.0935z"/> <path class="fil6" d="m319.56 66.045c0.1706-0.3412 0.3411-0.5117 0.3411-0.8529 0.6823 0.5117-0.1705 2.7291 0.6823 3.2408-0.5117 0.5117-1.0234 0-1.7057-0.1706v-3.0702c0.6823-0.3411 0.3412 0.5117 0.6823 0.8529z"/> <path class="fil6" d="m191.81 62.975c-3.5819 4.2641-7.6754 8.6988-11.428 12.451 2.8996-4.4347 7.5048-8.3576 11.087-12.963 0.3411 0 0.5117 0.1706 0.3411 0.5117z"/> <path class="fil6" d="m193 64.169c-3.0702 3.4113-6.9932 6.652-9.2105 10.575-0.5117 0.1705-0.8529 0.8528-1.3646 0.3411 3.0702-4.0936 7.3343-8.0165 10.575-11.598v0.6823z"/> <polygon class="fil17" points="316.32 67.239 316.49 68.603"/> <path class="fil6" d="m186.18 73.891 1.0234 0.5117c2.2173-2.0467 4.7758-4.0935 6.652-6.4814 0.3411 0.1705 0.3411 0.1705 0.3411 0.6822-2.0468 2.3879-4.7758 3.5819-5.9698 6.3109-0.8528 0.3412-1.0233 1.7057-2.0467 1.0234-0.3412-0.6822 1.0234-1.0234 0.6822-1.5351-1.3645 0.5117-2.2173 2.3879-3.923 2.2174 3.7525-3.7524 7.5049-7.846 11.428-11.598v0.6822l-8.1871 8.1871z"/> <polygon class="fil17" points="385.06 72.868 385.23 72.868 385.23 73.379 385.06 73.379"/> <path class="fil6" d="m195.05 69.797c-2.2173 2.8996-4.4346 5.1169-6.9931 7.5048l-0.1706-0.3411c3.0702-2.0468 4.4347-5.4581 6.9932-7.5048l0.1705 0.3411z"/> <path class="fil17" d="m148.32 80.543c-2.729 1.5351-5.4581 3.5818-8.0165 5.9697l0.1705-1.1939c2.5585-1.7057 4.7758-4.4347 7.846-4.7758z"/> <path class="fil17" d="m140.64 84.125c0.6822-0.6822 1.8762-1.7056 2.8996-2.2173l-2.8996 2.2173z"/> <path class="fil17" d="m138.59 84.807c0.3411-0.8528 1.3645-1.8762 2.5585-2.3879-0.5117 0.5117-1.7057 1.7056-2.5585 2.3879z"/> <path class="fil17" d="m285.45 88.218c-0.3412 0.1706 0 0.8528-0.5117 1.0234v-1.0234h0.5117z"/> <polygon class="fil17" points="101.24 101.69 101.92 99.305 101.24 101.52"/> <path class="fil6" d="m210.57 95.382v1.3645c3.0702 0.1706 6.3109 0 8.8694 0.6823 1.194 0.1705-0.1706-2.5585 1.3645-1.3645l-0.5117 3.4113c-1.7056 0.6822-3.923-0.1706-5.2875 0.8528 0 2.3879 0 4.7758-0.1706 6.9931-0.1705-2.0467-0.3411-4.4346-0.3411-6.9931-2.0468-0.8528-4.6052 0.3411-6.652-0.6823 0-0.8528 1.3645-0.1705 1.5351-1.0234-0.1706-1.0234-0.5117-2.3879-0.1706-3.2407 0.5117 0.6823 0.6823-0.3411 1.3645 0z"/> <path class="fil20" d="m234.96 111.59c-4.9464 0.3411-9.7222 0.1705-14.327 0.3411 4.2641-0.5117 9.7221-0.6823 14.327-0.3411z"/> <path class="fil6" d="m284.94 122.84c-0.1706 0-0.1706 0.1706-0.3412 0.1706l0.6823 0.6823-0.5117 0.5116c-6.8226 0.1706-13.134 0.3412-20.297 0.5117v-0.6822c7.1637-0.3411 13.134 0.6822 20.127-0.6823l-0.8528-0.8528c-6.8226 0.3411-12.792 0.6823-19.786-0.1706-0.1706 0-0.1706-0.1705-0.1706-0.5117 6.8226 1.0234 13.645 0.6823 20.638 0l0.5117 1.0234z"/> <path class="fil6" d="m251.16 122.84c1.3646 1.5351 2.8996 2.7291 4.7759 3.7525 0.5116-0.6823 0.5116-1.7057 0.5116-2.5585 0.3412 0 0.6823 0.5117 0.6823 0.8528l-0.6823 2.2173c0.6823 0.6823 1.194 1.194 1.3646 2.2174-0.3412-0.1706-1.194 0.1706-0.8529 0.6822-0.5117 0.3412-0.5117-0.5116-1.1939-0.8528-1.8762 0.5117-3.923 1.0234-5.7992 0.5117-1.5351-1.0234-2.5585-2.5585-2.5585-4.2641-0.3411-1.5351 1.5351-2.729 2.8996-3.4113 1.0234-0.5117 1.5351 0.3411 0.8528 0.8528z"/> <path class="fil21" d="m250.48 124.89c1.1939 1.194 3.2407 2.3879 4.2641 3.7524-1.5351 0.5117-3.0702 0.8529-4.6052 0.1706-1.3646-1.0234-2.2174-2.5585-1.8763-4.0936 0.5117-0.8528 1.194-1.3645 2.0468-1.8762l0.8528 1.3645-0.6822 0.6823z"/> <path class="fil6" d="m284.94 125.23c0 0.6823-1.5351 1.0234-2.0468 0.8529-6.4815 0.3411-13.304 0.6822-19.274 1.0233-0.3412-0.1705-0.3412-0.3411-0.3412-0.5116 7.3343-0.5117 14.498-0.6823 21.662-1.3646z"/> <path class="fil6" d="m284.42 127.79c-6.9932 0.1706-13.475 1.7057-20.638 1.3645v-0.5117c6.4815 0.1706 12.963-1.0234 19.786-1.5351 0.3412 0.3412 1.0234 0.1706 0.8529 0.6823z"/> <path class="fil6" d="m286.64 129.67v0.5117c-8.1871-0.3411-16.715 2.2174-24.391 0.3411 8.0166 0.8529 16.374-1.0233 24.391-0.8528z"/> <path class="fil17" d="m205.11 136.32c1.1939-0.6822 2.729-0.6822 4.0935-0.8528l3.0702 0.1706-7.1637 0.6822z"/> <path class="fil6" d="m174.75 137.68c-2.2173-0.1706-4.7758 1.7056-5.7992 3.923-0.3411 1.0233 0 2.0467 0.3412 2.8996 2.3879-1.7057 4.2641-3.7525 6.4814-5.4581l0.6823 0.3411c-1.194 2.3879-3.4113 4.6053-4.9464 6.652-0.1706 1.7057 2.2173 0.5117 2.8996 0.8529 0.6823-0.6823 1.0234-0.1706 1.7057-0.5117-1.5351 1.535-3.923 1.1939-5.9698 0.6822-1.8762-0.8528-1.3645-2.8996-2.0468-4.4347 0.1706-2.2173 2.2174-3.7524 3.923-4.7758 0.6823-0.3411 2.0468-0.6822 2.729-0.1705z"/> <polygon class="fil17" points="190.78 140.41 193.34 139.05 193.68 139.05"/> <path class="fil6" d="m205.28 139.22c0 0.8529-1.7056 0.5117-2.3879 1.0234 1.0234 0.3412 1.8762-0.1705 2.7291 0.1706-1.194 0.6823-2.5585 0.3411-3.7525 0.8528-2.8996 1.0234-5.7992 1.7057-8.3576 3.5819 0.5117 1.1939 2.0467 1.5351 3.2407 2.3879 2.5585 1.3645 6.3109 0.8528 9.0399 2.0468-2.3879 0.8528-4.6052-0.3412-6.8226-0.5117-3.2407-1.0234-5.7992-2.8996-8.6988-4.4347v-0.6823c2.7291 0.6823 4.4347-2.2173 6.6521-2.729 2.5584-1.0234 5.6286-1.0234 8.3576-1.7057z"/> <path class="fil2" d="m202.72 140.41c-3.5819 0.8528-6.9932 1.8762-10.063 3.923 2.8996-2.0468 6.1404-3.923 10.063-3.923z"/> <path class="fil17" d="m261.4 148.26c0.6823-1.5351 1.3645-3.0702 2.5585-4.2641-0.8528 1.3645-1.3645 2.8996-2.5585 4.2641z"/> <path class="fil6" d="m79.748 145.02c-2.5585 3.0702-5.117 5.7992-8.0166 8.5283 0 1.8762-2.2173 3.4113-3.2407 4.9464l0.3411 0.5117c-2.3879 3.2407-5.7992 5.7992-7.6754 9.381 1.3645-1.0234 2.8996-3.4113 4.4347-4.6052-0.1706 2.5584-3.0702 3.5818-3.4113 6.1403 0.5117 0.1706 0.6823-1.3645 1.3645-1.0234-6.9931 11.257-15.18 22.685-15.18 37.013-0.6823 7.1637-0.1706 14.668-0.5117 21.662 0.6822 6.4814 0.5117 13.304 2.2173 19.615 2.729 2.8996 5.2875 7.1637 9.2105 8.6988 8.1871 1.3645 16.374 0.3412 24.902 0.3412l4.6052-1.7057c0 0.6823-0.8528 0.6823-1.3645 1.194 1.1939 0.1705 2.2173-0.3412 3.4113-0.3412l-0.6823 0.5117c0.3412 0.6823 1.0234-0.1705 1.194 0.1706-0.5117 0.1706-0.8528 0.3411-1.5351 0.1706 0.5117-0.3412-0.1706-0.5117-0.5117-0.5117-1.7056 2.0467-4.4347 1.0234-6.8226 1.8762 4.2641 0.5117 9.0399-0.1706 13.304-1.0234-0.1706 0-0.1706 0.1706-0.3412 0.1706 1.7057 1.0233 4.0936-0.1706 6.1404-0.3412 8.8693-6.652 6.8225-18.592 7.3342-28.143h-0.5117c0.1706-0.6822-0.1705-1.0233-0.1705-1.7056-0.3411 3.2407-1.194 6.9931-1.0234 9.7222-0.3411-1.3645 0.3411-2.8996-0.3411-4.0936-0.3412 1.3645-0.5117 3.0702-0.6823 4.2641 1.194-23.026 2.3879-45.541 14.839-64.132-0.3411 1.3645-0.6822 3.2407-1.8762 4.4347-0.1705 0.1706 0.5117-0.3411 0-0.5117-1.0234 2.0468-2.2173 4.2641-2.3879 6.652l0.6823-0.8528c-3.7524 10.575-6.3109 21.662-6.4815 32.578-0.5117 5.6286-1.5351 12.11-0.8528 17.909l-0.5117 0.1705c-0.3411 9.2105 0 19.103-8.0165 24.391-15.692 1.1939-28.996 2.8996-44.688 3.7524-3.923-0.5117-7.846-3.0702-9.5516-7.1637-5.6287-15.862-5.6287-33.431-4.0936-50.828 3.0702-16.033 10.575-30.36 21.662-42.641 4.4347-5.4581 10.063-10.234 14.498-15.351l0.3412 0.1705z"/> <path class="fil17" d="m206.99 160.2h-0.5117c0.5117-1.7056 1.3645-3.2407 2.5584-4.4347-0.6822 1.194-1.8762 2.7291-2.0467 4.4347z"/> <path class="fil6" d="m99.874 160.71c-0.3411 2.5585-0.8528 5.6286-1.0234 8.3577 0.8528-1.8762 1.8762-4.2641 3.2408-5.6287 0.3411 2.8996-2.2174 4.9464-2.0468 7.6755l1.7056-3.0702h0.5117c-2.2173 8.0165-4.9464 16.374-7.5048 23.879l0.8528-1.535c-0.6823 1.7056-0.6823 3.0701-2.0468 4.0935 2.0468-7.5048 5.7992-15.351 6.9932-23.367-2.5585 4.4346-4.4347 9.2104-5.9698 13.986l-0.3411-0.3412c1.8762-3.7524 0.8528-7.1637 3.0701-10.746 1.3646-4.4347 0.8529-9.2105 2.5585-13.304z"/> <path class="fil6" d="m99.022 186.63 1.5351-3.2407c-2.2174 8.8694-6.4815 17.568-7.846 26.779 2.0468-4.4347 2.2173-9.2105 4.2641-13.645 0.8528 0.1706 0 0.6823 0.5117 1.0234-2.2173 13.986-4.2641 27.632-3.4113 42.13l-0.6822-0.8528c-0.1706-7.5049 0.5116-16.204 1.0233-23.708-0.3411 0.5116-0.1705 1.535-0.8528 1.7056 0.6823-5.1169 1.7057-9.3811 2.0468-14.669-1.3645 3.2408-1.7057 6.8226-3.2407 9.7222h-0.5117c0.1705-2.0468 0.5117-4.0935 1.1939-5.9697l-0.8528-0.5117c1.8762-10.746 7.3343-20.297 10.234-30.702-0.6823 3.7524-2.2174 8.1871-3.4113 11.94z"/> <path class="fil6" d="m88.788 185.78 0.5117 0.1706c-0.8528 2.5585-1.5351 5.2875-1.8762 8.0165h-0.5117c0.5117-4.4347 1.3645-9.0399 2.8996-12.963l-1.0234 4.7758z"/> <path class="fil6" d="m92.028 181.35c-0.5117 2.7291-2.2173 5.7992-2.0467 8.8694 1.0233-1.8762 0.8528-4.7758 2.2173-6.1403-1.3645 5.2875-2.0468 11.94-2.3879 18.25 0.3411 8.5282-0.8528 17.227 0.5117 26.096 0.5117-2.3879-0.3411-5.2875 1.0234-7.1637-1.0234 9.0399 0 17.056 1.7056 25.244-3.4113-6.3109-2.5584-13.816-4.7758-20.468 0-8.3577-1.1939-18.762 0-26.608-1.0234-3.0702 0.1706-6.8226 0.5117-9.8928l1.3645-4.7758c-0.1705-0.3411-0.5117 0.1706-0.6822 0.1706 0.5117-0.3411 1.1939-2.8996 2.5584-3.5819z"/> <polygon class="fil6" points="64.226 182.54 64.567 181.69 64.567 182.2"/> <path class="fil6" d="m79.748 199.94c2.3879 1.8762 4.4347 4.2641 4.0935 7.1637-0.1705 0.5117-0.5117 0.8528-0.5117 1.194l-0.6822-0.3412c-0.1706 3.7525-1.7057 7.6754-5.6287 9.04-2.5584 0.5117-5.1169-0.3412-7.5048-0.6823-0.5117-1.0234-1.3645-1.3645-2.2174-2.2173-1.535-2.7291-3.9229-6.3109-1.7056-9.5517 0.8528-0.3411 0.8528-2.2173 2.0468-1.535-0.5117 1.1939-1.8762 2.3879-2.0468 3.9229 0 0.3412 0 0.6823 0.3411 0.8529 1.7057-3.7525 5.7992-6.3109 10.063-6.1404 1.0234 0.3412 1.8763 0.8529 2.5585 1.8763-1.1939-0.1706-2.729-1.5351-4.2641-1.194-2.2173 0.3411-4.0936 1.194-5.6286 2.729 1.0234 0.6823 1.8762-1.1939 2.8996-1.1939 0.6822-0.1706 1.1939 1.1939 0.6822 1.0234-0.6822-1.3645-1.5351 0.1705-2.2173 0.3411-0.5117 0.8528-1.3645 1.5351-1.0234 2.729h0.6823c-1.0234 0.6823-0.3412 2.0468-0.1706 2.8996 1.0234 1.5351 2.2173 3.7525 4.4347 3.4113 0.8528 1.194 2.3879-0.8528 3.0701-1.1939 0 1.1939-1.1939 1.1939-1.7056 2.0468 0.5117 0.6822 1.3645 0.1705 2.0468-0.1706 2.2173-1.194 2.5584-4.2641 3.5818-5.7992 0.3412 1.3645-1.0234 2.3879-0.5117 3.5818 1.3645-2.5584 1.5351-5.9697 0-8.5282 0-1.7056-2.2173-3.0702-3.7524-3.7524-1.3645-0.1706-2.0468-0.5117-3.2407-1.194v-0.3411c2.0468 0.1706 4.4347 0.5117 6.3109 1.0234z"/> <polygon class="fil17" points="79.748 201.47 78.895 200.79 79.406 200.96"/> <path class="fil6" d="m76.678 206.93c1.194 1.194 0.1706 2.8996 0 4.0936-1.0234 1.0234-1.5351 2.5585-3.0702 1.8762-1.1939-0.3411-2.3879-0.8528-2.8996-1.8762 0.1706-1.3645-0.8528-3.0702 0.5117-3.923 1.0234-2.2173 3.923-1.3645 5.4581-0.1706z"/> <polygon class="fil17" points="82.477 206.59 82.818 207.61"/> <path class="fil17" d="m76.336 207.78v0.3411l-2.0468-1.5351c0.8528 0.1706 1.7056 0.3411 2.0468 1.194z"/> <path class="fil22" d="m74.631 209.32c0.3412 1.0233-0.1705 1.7056-1.0234 2.0467-0.5117-0.3411-1.3645-0.6822-1.7056-1.1939-0.1706-1.0234 0.6823-1.7057 1.3645-2.0468 0.8528 0 1.0234 0.5117 1.3645 1.194z"/> <polygon class="fil23" points="74.972 211.71 75.654 210.17 75.484 211.2"/> <path class="fil17" d="m66.614 257.76c2.0468-0.3411 5.7992-0.3411 8.8694-0.5117l-8.8694 0.5117z"/> <path class="fil17" d="m64.397 257.59c0.3412 1.1939-2.0467 0.1705-2.729 0.8528l-2.3879-0.6823c1.0234-0.5117 3.2407-0.1705 5.1169-0.1705z"/> <path class="fil6" d="m158.21 35.002c1.535 1.0234 3.4112 2.2173 3.9229 4.2641-4.2641-5.9698-13.304-4.9464-19.444-4.7758 1.1939 0.6823 2.8996 0.1706 3.923 1.1939l-0.5117 0.6823c4.9463 0.1706 9.5516 2.0468 12.11 6.652 3.4112 4.6053 5.7992 9.7222 7.5048 15.01 0 2.0468 0 4.0936-0.6823 5.9698 1.5351-1.7057 4.2642-3.2407 6.9932-2.5585 0 0.1706 0.1706 0.1706 0.1706 0.3412-1.5351 0-3.5819-0.1706-4.9464 1.0233-1.5351 2.2174-3.4113 4.2642-3.923 6.8226-0.3411-3.7524 2.8996-7.6754 1.5351-11.769-2.5585-6.9932-5.9698-14.669-12.281-19.444-3.923-1.3645-9.7222-1.194-13.134-1.3645-0.3411-0.8529-1.0234-1.0234-1.8762-1.194-0.5117-2.3879 3.0702-1.7056 4.2641-2.2173 5.9698 0 11.257-0.3412 16.374 1.3645zm-15.863-0.3411c-0.6822 0-1.3645 0.5117-2.2173 0.3411 0.8528-0.1706 1.3645-0.5117 2.2173-0.3411zm3.5819 1.3645c-1.194 0.3411-3.2407 0.5117-4.9464 0.3411 1.7057-0.6823 3.0702-0.1706 4.9464-0.3411z"/> <polygon class="fil24" points="206.14 67.921 274.87 68.603 274.7 79.69 206.31 80.372"/> <path class="fil6" d="m116.59 115c1.0233-1.3646 1.3645 1.0233 2.2173 1.1939-0.5117 1.8762-0.5117 4.0936 0 5.7992 0.5117-1.0234 0.5117-2.2173 0.6823-3.4113 0.6822-0.1706 0.5117 0.5117 0.6822 0.6823-0.3411 4.0935 0.3411 8.3576 1.0234 11.94 0.1706-2.5585 0.5117-5.4581 0.3411-8.3577 0.5117 0.1706 0.3412-1.0234 1.194-0.5117-0.3411 1.0234 1.1939 1.194 1.0234 2.5585-0.5117 2.729 1.7056 4.7758 1.1939 7.5049 0.8529-0.6823 1.0234-2.388 2.0468-2.7291 0.1706 2.0468 0 3.5819 0.5117 5.6287 0.1706 0 0.1706-0.3412 0.3411-0.5117 0.3412-0.1706 0.6823 0.3411 0.8529 0.6822 0 3.923-2.388 7.1637-3.4113 10.404 1.8762-1.3645 3.0701-4.4347 5.2875-5.4581l0.3411 0.3411-2.2173 5.7992c2.0467-2.3879 3.2407-1.3645 5.6286-3.2407-0.5117 1.194-1.0234 1.8762-1.7057 2.729l0.8529-1.8762h-0.5117c-5.4581 5.9698-9.7222 12.792-13.816 19.615 0.5117 0.5117 0.6823-0.3412 1.0234-0.5117-0.3411 0.1705-0.5117 0.8528-0.3411 1.0234 2.0468-2.0468 3.0702-5.117 5.6286-6.8226-4.7758 6.3109-8.3576 13.134-11.94 20.127-0.5117-0.3411 0.6823-1.3645 0.1706-2.0468-2.8996 5.4581-5.9698 10.746-7.1638 17.056-4.0935 14.839-4.7758 28.996-4.4346 44.347l0.3411 0.6823c0.6822-2.2173 0.6822-4.0936 1.1939-6.3109-0.3411 4.4347-1.3645 10.575-0.5117 15.521-0.1705-0.1706-0.3411 0-0.5117-0.1706-0.5116 1.8762 0.5117 5.4581-2.3879 5.4581v-3.7524c-0.8528 1.8762-0.5117 3.923-1.1939 5.9697-1.3645 0.1706-0.3411-1.3645-0.6823-1.7056-0.5117 0.5117-0.1705 1.194-0.8528 1.194l-0.6823-0.6823c-0.8528 0.5117-0.8528 1.8762-1.3645 2.729h-0.5117c0.1706-0.5117 0.3412-1.3645 0.5117-2.0467-0.1705-0.1706-0.6822-0.1706-0.8528-0.6823-0.3411-2.729 2.729-4.0936 2.3879-6.8226-2.0468-7.846-2.2173-17.227-1.7056-25.244 0.3411 3.2408 0.3411 7.846 0.1705 11.257 1.3645 4.6052 1.8762 9.5516 3.7525 14.157 1.1939-3.4113 0.8528-6.9932 1.8762-10.575 0 1.8762-0.1706 4.2641 0 6.1403 0.3411-13.645-0.3412-27.632 2.729-41.106 0.6823-3.923 1.5351-8.0166 2.0468-11.94-1.8762 3.5819-2.2174 8.8694-3.4113 13.134-1.194 4.7758-1.3645 10.234-1.5351 14.498-1.0234-4.0935 0-8.6988 0.5117-12.963 2.2173-10.916 5.1169-21.491 9.0399-31.554-1.1939 2.8996-1.7056 5.9698-2.2173 9.04 4.0935-13.475 11.94-25.244 20.638-36.33 0.3411-1.194 1.3645-2.5585 1.0234-3.5819-3.2407 1.194-3.2407 5.2875-5.9698 6.652 0.6823-2.0467 1.7057-4.2641 2.7291-6.3108l1.1939-4.9464-0.5117-0.1706c-1.0234 3.5819-2.3879 6.8226-4.4346 9.3811 1.8762-4.4347 4.7758-9.04 3.2407-14.328-1.8762 2.7291-1.3645 6.4815-2.7291 9.5517-0.3411-2.2174 1.0234-4.2642 1.0234-6.6521 0.1706-2.0467-0.1705-4.2641-0.8528-5.9697-0.3411 3.2407-1.8762 6.1403-2.729 9.5516-0.3412-4.4347-0.3412-9.5516-1.194-14.157-2.3879 1.0234 0 3.7524-1.3645 5.2875-1.0234-1.5351 0-3.4113-0.6823-4.9464-0.8528 1.5351 0.1706 3.5819-1.0233 4.6053 0.1705-2.2173 0.1705-4.6053-0.3412-6.9932-0.3411 0.3412-0.1705 1.3646-0.8528 1.194-0.1706-2.8996 0.6823-6.1403 0.6823-8.5282 0.3411-0.1706 0.6822 0.1705 0.5117 0.5117zm3.4113 45.711c2.2173-4.4347 4.4346-9.0399 8.3576-12.451-2.3879 3.923-5.2875 8.5282-8.3576 12.451zm-13.986 31.043c0.5117-4.9464 2.2174-9.5516 4.0936-13.986-1.7057 4.4347-2.8996 9.381-4.0936 13.986zm-9.5516 48.952-0.5117-3.923 0.3412 1.8762 0.1705 2.0468z"/> <polygon class="fil17" points="206.14 69.286 274.87 70.48 274.7 75.256 205.97 74.062"/> <path class="fil5" d="m105.33 157.81c5.2875 0 9.7222-3.923 9.8927-9.0399 0.1706-4.9464-4.0935-9.2105-9.5516-9.2105-5.2875-0.1706-9.7222 3.923-9.8927 8.6988-0.1706 5.1169 4.0935 9.381 9.5516 9.5516z"/> <path class="fil6" d="m115.74 142.97c0.8529 3.2407 1.3646 7.6754 0.1706 10.575-0.3411 0.1705-0.5117-0.1706-0.6823-0.3411 0.3412-0.3412 0.1706-0.8529 0-1.0234-0.6822 0.5117-0.1705 2.2173-1.1939 1.7056-0.3411-1.1939 0.5117-2.5585 0.1706-3.923l-0.8529 1.8762-1.1939-1.1939-1.3645 1.3645c-0.5117-1.0234 0.1705-2.2173 0-3.0702-0.1706-0.5117-1.0234 0-1.5351 0.1706 0 1.194-1.7057 2.0468-1.3645 3.2407h0.5116c-0.8528 1.5351-2.729 1.0234-4.2641 1.0234-1.1939-0.6822-1.7056-2.2173-3.2407-1.1939 0.1706 0.5117-0.1706 1.1939 0.3411 1.3645 0.5117-0.1706 1.194-1.194 1.7057-0.3411-0.3412 0.6822-0.6823 1.1939-1.3645 1.535-2.2174-0.5117-0.8529-3.0701-2.8996-4.0935 0.1705-0.6823 0.6822-1.194 1.0233-1.7057-0.1705-0.3411-0.5116-0.3411-0.8528-0.5117-0.5117 0.5117 0.5117 1.0234-0.5117 1.0234 0-0.6822-0.6822-1.3645-0.1705-2.0467 1.3645 0 2.8996 1.3645 4.0935 0-1.1939-0.5117-2.5585 0.5116-3.0701-0.8529 0.5116 0 1.0233-0.5117 1.535-0.3411 0.5117 1.0234 3.2408-0.3411 3.2408 1.3645-0.5117 0.3411-1.0234 0.5117-1.0234 1.194 0.5117 0.3411 1.0234 0.5117 1.8762 0.5117-0.3411-1.5351 1.5351-0.5117 1.7056-1.7057 0.5117 0.1706 1.3646-1.1939 1.7057 0 1.0234-1.1939 3.2407 0.3411 4.6052-1.7056l0.1706-1.3645c1.3645 0.6822 1.7056 2.2173 2.0468 3.9229 0.6822-2.8996-0.1706-6.3109-2.5585-8.0165 0-1.0234-2.0468-1.0234-1.7056-2.2173 2.3879 0.8528 4.2641 2.3879 4.9463 4.7758z"/> <path class="fil25" d="m101.58 139.05c-1.0234 0.8528-2.2174 2.0468-3.5819 3.2407-3.0702 4.0936-2.2173 9.5516 0.1706 13.645 1.7056 2.2173 5.2875 2.729 8.1871 2.0468 1.7056-0.5117 3.2407-1.5351 4.7758-2.3879-1.8762 2.5584-5.7992 3.4113-8.5283 3.2407-2.0467-0.1706-3.5818-1.5351-5.6286-2.5585-3.0702-3.5818-3.7524-8.0165-1.7056-12.11 0.6822-0.5117 0.6822-1.3645 1.535-1.0234 0.8529-1.535 2.2174-3.0701 3.5819-4.2641 0.5117 0 1.0234-0.1706 1.194 0.1706z"/> <path class="fil26" d="m110.96 141.6c0.3412 0.6822 0.5117 1.535 0.8528 1.8762-1.535 0.1705-3.2407 1.0234-3.9229 2.2173 0-0.6823-0.3412-1.5351-1.5351-1.7056-0.1706 0.3411-0.1706 1.0233-0.8529 0.8528-0.3411-1.0234-0.6822-2.5585-0.1705-3.5819 0.6822 0.1706 2.2173-0.6822 3.2407 0.6823 0.5117 1.3645 1.3645-0.5117 2.3879-0.3411z"/> <path class="fil17" d="m95.44 151.84c-0.6822-1.1939-0.8528-3.923-0.3411-5.7992 0 2.0468 0 3.923 0.3411 5.7992z"/> <path class="fil17" d="m105.84 151.33c-0.3412 0.1706 0-0.3411 0-0.8528 0.1705 0 0 0.5117 0 0.8528z"/> <path class="fil17" d="m103.8 152.01c-0.8528-0.5117 0.3411-0.6823 0.3411-1.194 0.3412 0.1706 0.1706 1.0234-0.3411 1.194z"/> <path class="fil6" d="m99.874 153.37c-0.6822 0.3411-1.3645 0-1.8762-0.3411v-1.0234c0.8528 0.1706 1.194 0.8528 1.8762 1.3645z"/> </svg>