<svg width="800" height="600" xmlns="http://www.w3.org/2000/svg">
 <g>
  <title>Layer 1</title>
  <g>
   <circle fill="#090909" r="512" cy="300" cx="400"/>
   <path fill="#fff" d="m542.41,12c-26.66,0 -75.73,3.73 -120.79,23.68l0,218.2l-53.09,0l0,-197.06c-23.17,7.37 -72,30.46 -110.94,60.68c24.64,19.16 33.41,41.19 33.41,59.8l0,310.1l-11.79,9.89c21.42,61.56 43.69,98.36 88.39,140.71l0,-314.42l52.14,0l0,224.36c55,-38.37 75.65,-65.11 87,-97.8l-11.15,-4.91l0,-257.51c-0.01,-70.28 16.7,-134.32 46.82,-175.72z"/>
  </g>
 </g>

</svg>