<svg width="800" height="600" xmlns="http://www.w3.org/2000/svg">
 <g>
  <title>Layer 1</title>
  <g>
   <g stroke-width="0" id="svg_6"/>
   <g stroke-width="10.24" stroke="#CCCCCC" stroke-linejoin="round" stroke-linecap="round" id="svg_5"/>
   <g id="svg_4">
    <circle fill="#090909" r="512" cy="300" cx="400"/>
    <path fill="#fff" d="m565.52,385.2l-17.33,-108.86l-63.7,108l-12.1,0c-7.26,-12.5 -10.08,-30.64 -10.08,-41.93c0,-18.54 1.21,-36.69 1.21,-60.47c0,-31.45 -9.27,-48 -33.87,-54l0,-0.81c52,-7.26 75.79,-41.93 75.79,-90.31c0,-68.94 -46,-83.86 -106,-83.86l-161.68,0l-68.53,324.17l85.87,0l25,-118.12l57.25,0c30.64,0 43.14,14.92 43.14,43.54c0,21.77 -2.42,39.11 -2.42,55.63c0,6 1.21,20.56 5.64,26.2l62.08,65.71l-53.62,114.91l114.5,-68.13l85.47,65.71l-15.73,-108.45l98.37,-68.94l-109.26,0.01zm-202.38,-186.66l-68.54,0l16.53,-78.21l63.7,0c22.58,0 46.36,6 46.36,33.46c0,35.07 -27.01,44.75 -58.05,44.75z"/>
   </g>
  </g>
 </g>

</svg>